<svg xmlns="http://www.w3.org/2000/svg" width="48" height="48" viewBox="0 0 48 48">
  <g id="Path_2830" data-name="Path 2830" fill="#02c58d">
    <path d="M 24 47.25 C 20.86094093322754 47.25 17.8161792755127 46.63537979125977 14.95028018951416 45.42321014404297 C 12.1817798614502 44.25223159790039 9.695249557495117 42.57571029663086 7.559770107269287 40.44023132324219 C 5.424290180206299 38.30474853515625 3.747770071029663 35.81821823120117 2.57679009437561 33.04972076416016 C 1.364619970321655 30.1838207244873 0.75 27.13905906677246 0.75 24 C 0.75 20.86094093322754 1.364619970321655 17.8161792755127 2.57679009437561 14.95028018951416 C 3.747770071029663 12.1817798614502 5.424290180206299 9.695249557495117 7.559770107269287 7.559770107269287 C 9.695249557495117 5.424290180206299 12.1817798614502 3.747770071029663 14.95028018951416 2.57679009437561 C 17.8161792755127 1.364619970321655 20.86094093322754 0.75 24 0.75 C 27.13905906677246 0.75 30.1838207244873 1.364619970321655 33.04972076416016 2.57679009437561 C 35.81821823120117 3.747770071029663 38.30474853515625 5.424290180206299 40.44023132324219 7.559770107269287 C 42.57571029663086 9.695249557495117 44.25223159790039 12.1817798614502 45.42321014404297 14.95028018951416 C 46.63537979125977 17.8161792755127 47.25 20.86094093322754 47.25 24 C 47.25 27.13905906677246 46.63537979125977 30.1838207244873 45.42321014404297 33.04972076416016 C 44.25223159790039 35.81821823120117 42.57571029663086 38.30474853515625 40.44023132324219 40.44023132324219 C 38.30474853515625 42.57571029663086 35.81821823120117 44.25223159790039 33.04972076416016 45.42321014404297 C 30.1838207244873 46.63537979125977 27.13905906677246 47.25 24 47.25 Z" stroke="none"/>
    <path d="M 24 1.5 C 20.96186065673828 1.5 18.01539039611816 2.094688415527344 15.24245071411133 3.267551422119141 C 12.56333923339844 4.400711059570313 10.15694046020508 6.023250579833984 8.090099334716797 8.090099334716797 C 6.023250579833984 10.15694046020508 4.400711059570313 12.56333923339844 3.267551422119141 15.24245071411133 C 2.094688415527344 18.01539039611816 1.5 20.96186065673828 1.5 24 C 1.5 27.03813934326172 2.094688415527344 29.98460960388184 3.267551422119141 32.75754928588867 C 4.400711059570313 35.43666076660156 6.023250579833984 37.84305953979492 8.090099334716797 39.9099006652832 C 10.15694046020508 41.97674942016602 12.56333923339844 43.59928894042969 15.24245071411133 44.73244857788086 C 18.01539039611816 45.90531158447266 20.96186065673828 46.5 24 46.5 C 27.03813934326172 46.5 29.98460960388184 45.90531158447266 32.75754928588867 44.73244857788086 C 35.43666076660156 43.59928894042969 37.84305953979492 41.97674942016602 39.9099006652832 39.9099006652832 C 41.97674942016602 37.84305953979492 43.59928894042969 35.43666076660156 44.73244857788086 32.75754928588867 C 45.90531158447266 29.98460960388184 46.5 27.03813934326172 46.5 24 C 46.5 20.96186065673828 45.90531158447266 18.01539039611816 44.73244857788086 15.24245071411133 C 43.59928894042969 12.56333923339844 41.97674942016602 10.15694046020508 39.9099006652832 8.090099334716797 C 37.84305953979492 6.023250579833984 35.43666076660156 4.400711059570313 32.75754928588867 3.267551422119141 C 29.98460960388184 2.094688415527344 27.03813934326172 1.5 24 1.5 M 24 0 C 37.25482940673828 0 48 10.74517059326172 48 24 C 48 37.25482940673828 37.25482940673828 48 24 48 C 10.74517059326172 48 0 37.25482940673828 0 24 C 0 10.74517059326172 10.74517059326172 0 24 0 Z" stroke="none" fill="#02c58d"/>
  </g>
</svg>
