<svg id="Component_65_282" data-name="Component 65 – 282" xmlns="http://www.w3.org/2000/svg" width="24" height="24" viewBox="0 0 24 24">
  <g id="Group_1593" data-name="Group 1593" transform="translate(-823 -78)">
    <rect id="Rectangle_1932" data-name="Rectangle 1932" width="24" height="24" transform="translate(823 78)" fill="none"/>
    <g id="Group_1611" data-name="Group 1611" transform="translate(679.905 -26)">
      <path id="Path_2804" data-name="Path 2804" d="M50.667,6.833H49.9V5.31a3.81,3.81,0,0,0-7.619,0V6.833h-.762A1.528,1.528,0,0,0,40,8.357v7.619A1.528,1.528,0,0,0,41.524,17.5h9.143a1.528,1.528,0,0,0,1.524-1.524V8.357A1.528,1.528,0,0,0,50.667,6.833ZM43.81,5.31a2.286,2.286,0,1,1,4.571,0V6.833H43.81Zm6.857,10.667H41.524V8.357h9.143ZM46.1,13.69a1.524,1.524,0,1,0-1.524-1.524A1.528,1.528,0,0,0,46.1,13.69Z" transform="translate(109 106.5)" fill="#02c58d" opacity="0"/>
      <path id="Path_2803" data-name="Path 2803" d="M14.667,6.833H13.9V5.31a3.81,3.81,0,1,0-7.619,0H7.81a2.286,2.286,0,1,1,4.571,0V6.833H5.524A1.528,1.528,0,0,0,4,8.357v7.619A1.528,1.528,0,0,0,5.524,17.5h9.143a1.528,1.528,0,0,0,1.524-1.524V8.357A1.528,1.528,0,0,0,14.667,6.833Zm0,9.143H5.524V8.357h9.143ZM10.1,13.69a1.524,1.524,0,1,0-1.524-1.524A1.528,1.528,0,0,0,10.1,13.69Z" transform="translate(145 106.5)" fill="#02c58d"/>
    </g>
  </g>
</svg>
