<svg xmlns="http://www.w3.org/2000/svg" width="24" height="24" viewBox="0 0 24 24">
  <g id="Group_80" data-name="Group 80" transform="translate(-751 -725)">
    <rect id="Rectangle_40" data-name="Rectangle 40" width="24" height="24" transform="translate(751 725)" fill="none"/>
    <g id="Icon" transform="translate(25564 -1882.136)">
      <path id="Fill" d="M17,9.136,15.225,7.107l.247-2.684-2.625-.6L11.473,1.5,9,2.562,6.527,1.5,5.153,3.82l-2.625.589L2.775,7.1,1,9.136l1.775,2.029-.247,2.691,2.625.6,1.375,2.32L9,15.7l2.473,1.062,1.375-2.32,2.625-.6-.247-2.684ZM7.611,12.569,4.847,9.8,5.924,8.722l1.687,1.695,4.255-4.269,1.076,1.076Z" transform="translate(-24810 2610)"/>
      <g id="Outline" transform="translate(9)">
        <path id="Path_2828" data-name="Path 2828" d="M17,48.129,15.225,46.1l.247-2.684-2.625-.6L11.473,40.5,9,41.562,6.527,40.5,5.153,42.82l-2.625.589L2.775,46.1,1,48.129l1.775,2.029-.247,2.691,2.625.6,1.375,2.327L9,54.7l2.473,1.062,1.375-2.32,2.625-.6-.247-2.684Zm-2.873,1.076-.407.473.058.618.131,1.418-1.993.451-.32.538-.72,1.222-1.295-.56L9,53.118l-.575.247-1.295.56-.72-1.215-.32-.538L4.1,51.722,4.229,50.3l.058-.618-.407-.473-.938-1.069L3.88,47.06l.407-.473-.065-.625-.131-1.411L6.084,44.1l.32-.538.72-1.222,1.295.56L9,43.147l.575-.247,1.295-.56.72,1.222.32.538,1.993.451-.131,1.418-.058.618.407.473.938,1.069Z" transform="translate(-24819 2571)" fill="none"/>
        <path id="Path_2829" data-name="Path 2829" d="M9.054,51.146,7.366,49.452,6.29,50.535l2.764,2.771,5.338-5.353L13.315,46.87Z" transform="translate(-24820.443 2569.263)" fill="none"/>
      </g>
    </g>
  </g>
</svg>
