<svg xmlns="http://www.w3.org/2000/svg" width="24" height="24" viewBox="0 0 24 24">
  <g id="Group_80" data-name="Group 80" transform="translate(-751 -725)">
    <rect id="Rectangle_40" data-name="Rectangle 40" width="24" height="24" transform="translate(751 725)" fill="none"/>
    <g id="Group_1637" data-name="Group 1637" transform="translate(615 305)">
      <path id="Path_2807" data-name="Path 2807" d="M60,17.222V4.778A1.783,1.783,0,0,0,58.222,3H45.778A1.783,1.783,0,0,0,44,4.778V17.222A1.783,1.783,0,0,0,45.778,19H58.222A1.783,1.783,0,0,0,60,17.222ZM48.889,12.333l2.222,2.676L54.222,11l4,5.333H45.778Z" transform="translate(96 421)" fill="#02c58d"/>
      <path id="Path_2806" data-name="Path 2806" d="M17.222,4.778V17.222H4.778V4.778Zm0-1.778H4.778A1.783,1.783,0,0,0,3,4.778V17.222A1.783,1.783,0,0,0,4.778,19H17.222A1.783,1.783,0,0,0,19,17.222V4.778A1.783,1.783,0,0,0,17.222,3ZM12.9,10.876l-2.667,3.44-1.9-2.3L5.667,15.444H16.333Z" transform="translate(137 421)" fill="#707070" opacity="0"/>
    </g>
  </g>
</svg>
