<svg xmlns="http://www.w3.org/2000/svg" width="40" height="40.001" viewBox="0 0 40 40.001">
  <path id="Subtraction_2" data-name="Subtraction 2" d="M20,40a1.987,1.987,0,0,1-1.414-.586l-18-18a2,2,0,0,1,0-2.828l18-18a2,2,0,0,1,2.829,0l18,18a2,2,0,0,1,0,2.828l-18,18A1.987,1.987,0,0,1,20,40Zm0-11.349a2.217,2.217,0,1,0,2.217,2.217A2.219,2.219,0,0,0,20,28.651ZM20,6.915a1.726,1.726,0,0,0-1.724,1.724V23.417a1.724,1.724,0,1,0,3.449,0V8.639A1.726,1.726,0,0,0,20,6.915Z" transform="translate(-0.001 0.001)" fill="#fc5454"/>
</svg>
