<svg xmlns="http://www.w3.org/2000/svg" width="24" height="24" viewBox="0 0 24 24">
  <g id="Group_80" data-name="Group 80" transform="translate(-751 -725)">
    <rect id="Rectangle_40" data-name="Rectangle 40" width="24" height="24" transform="translate(751 725)" fill="none"/>
    <g id="archive" transform="translate(752.75 726.196)">
      <g id="Path_1034" data-name="Path 1034" transform="translate(-1.107 -3.875)" fill="none">
        <path d="M4.5,11.393v8.714a2,2,0,0,0,2,2h9.714a2,2,0,0,0,2-2V11.393a.143.143,0,0,0-.143-.143H4.643a.143.143,0,0,0-.143.143Zm9.535,5.415-2.275,2.275a.571.571,0,0,1-.808,0L8.679,16.808a.582.582,0,0,1-.03-.8.571.571,0,0,1,.827-.02l1.31,1.31V13.552a.582.582,0,0,1,.544-.587.571.571,0,0,1,.6.57V17.3l1.31-1.31a.571.571,0,0,1,.827.02.582.582,0,0,1-.03.8Z" stroke="currentColor"/>
        <path d="M 4.642728805541992 11.25000381469727 C 4.563898086547852 11.25000381469727 4.499998092651367 11.31390380859375 4.499998092651367 11.39273452758789 L 4.499998092651367 20.10689353942871 C 4.499998092651367 21.21160316467285 5.395547866821289 22.10714340209961 6.50025749206543 22.10714340209961 L 16.21453857421875 22.10714340209961 C 17.31924819946289 22.10714340209961 18.21479797363281 21.21160316467285 18.21479797363281 20.10689353942871 L 18.21479797363281 11.39273452758789 C 18.21479797363281 11.31390380859375 18.15088844299316 11.25000381469727 18.07206726074219 11.25000381469727 L 4.642728805541992 11.25000381469727 M 11.92856788635254 17.29901313781738 L 13.23904800415039 15.98904418945313 C 13.34956741333008 15.8785514831543 13.50052738189697 15.818115234375 13.65674781799316 15.82188415527344 C 13.81298828125 15.82563400268555 13.9608678817749 15.8931941986084 14.06596755981445 16.00885391235352 C 14.27320766448975 16.23641395568848 14.25288772583008 16.5904426574707 14.03548812866211 16.80835342407227 L 14.03548812866211 16.8078441619873 L 11.76094818115234 19.08238220214844 C 11.53785705566406 19.30520248413086 11.17642879486084 19.30520248413086 10.95332813262939 19.08238220214844 L 8.678797721862793 16.80835342407227 C 8.461398124694824 16.5909538269043 8.441078186035156 16.23692321777344 8.648318290710449 16.00885391235352 C 8.75341796875 15.8931941986084 8.901297569274902 15.82563400268555 9.057538032531738 15.82188415527344 C 9.213763236999512 15.81810188293457 9.364718437194824 15.87855529785156 9.475237846374512 15.98904418945313 L 10.78571796417236 17.29901313781738 L 10.78571796417236 13.55196380615234 C 10.78571796417236 13.24466323852539 11.02190780639648 12.98054313659668 11.3297176361084 12.96530342102051 C 11.48579597473145 12.95781326293945 11.63811874389648 13.01453399658203 11.75125789642334 13.1223030090332 C 11.86439800262451 13.23006439208984 11.9284782409668 13.37946319580078 11.92856788635254 13.53571319580078 L 11.92856788635254 17.29901313781738 M 4.642728805541992 9.950002670288086 L 18.07206726074219 9.950002670288086 C 18.86758804321289 9.950002670288086 19.51479721069336 10.59721374511719 19.51479721069336 11.39273452758789 L 19.51479721069336 20.10689353942871 C 19.51479721069336 21.92665481567383 18.0343074798584 23.40714263916016 16.21453857421875 23.40714263916016 L 6.50025749206543 23.40714263916016 C 4.680488586425781 23.40714263916016 3.19999885559082 21.92665481567383 3.19999885559082 20.10689353942871 L 3.19999885559082 11.39273452758789 C 3.19999885559082 10.59721374511719 3.847208023071289 9.950002670288086 4.642728805541992 9.950002670288086 Z" stroke="currentColor" fill="currentColor"/>
      </g>
      <g id="Path_1035" data-name="Path 1035" fill="none">
        <path d="M3.393,3.375H17.107A1.143,1.143,0,0,1,18.25,4.518v.571a1.143,1.143,0,0,1-1.143,1.143H3.393A1.143,1.143,0,0,1,2.25,5.089V4.518A1.143,1.143,0,0,1,3.393,3.375Z" stroke="currentColor"/>
        <path d="M 3.392860412597656 3.375001907348633 C 2.76167106628418 3.375001907348633 2.250001907348633 3.886671543121338 2.250001907348633 4.517861843109131 L 2.250001907348633 5.089281558990479 C 2.250001907348633 5.720471382141113 2.76167106628418 6.232141494750977 3.392860412597656 6.232141494750977 L 17.10714149475098 6.232141494750977 C 17.73833084106445 6.232141494750977 18.25 5.720471382141113 18.25 5.089281558990479 L 18.25 4.517861843109131 C 18.25 3.886671543121338 17.73833084106445 3.375001907348633 17.10714149475098 3.375001907348633 L 3.392860412597656 3.375001907348633 M 3.392860412597656 2.07500171661377 L 17.10714149475098 2.07500171661377 C 18.45414161682129 2.07500171661377 19.55000114440918 3.170861721038818 19.55000114440918 4.517861843109131 L 19.55000114440918 5.089281558990479 C 19.55000114440918 6.436281681060791 18.45414161682129 7.53214168548584 17.10714149475098 7.53214168548584 L 3.392860412597656 7.53214168548584 C 2.045860290527344 7.53214168548584 0.9500007629394531 6.436281681060791 0.9500007629394531 5.089281558990479 L 0.9500007629394531 4.517861843109131 C 0.9500007629394531 3.170861721038818 2.045860290527344 2.07500171661377 3.392860412597656 2.07500171661377 Z" stroke="currentColor" fill="currentColor"/>
      </g>
    </g>
  </g>
</svg>
