<svg xmlns="http://www.w3.org/2000/svg" width="24" height="24" viewBox="0 0 24 24">
  <g id="Group_80" data-name="Group 80" transform="translate(-751 -725)">
    <rect id="Rectangle_40" data-name="Rectangle 40" width="24" height="24" transform="translate(751 725)" fill="none"/>
    <g id="archive" transform="translate(752.75 726.196)">
      <path id="Path_1034" data-name="Path 1034" d="M4.5,11.393v8.714a2,2,0,0,0,2,2h9.714a2,2,0,0,0,2-2V11.393a.143.143,0,0,0-.143-.143H4.643a.143.143,0,0,0-.143.143Zm9.535,5.415-2.275,2.275a.571.571,0,0,1-.808,0L8.679,16.808a.582.582,0,0,1-.03-.8.571.571,0,0,1,.827-.02l1.31,1.31V13.552a.582.582,0,0,1,.544-.587.571.571,0,0,1,.6.57V17.3l1.31-1.31a.571.571,0,0,1,.827.02.582.582,0,0,1-.03.8Z" transform="translate(-1.107 -3.875)"/>
      <path id="Path_1035" data-name="Path 1035" d="M3.393,3.375H17.107A1.143,1.143,0,0,1,18.25,4.518v.571a1.143,1.143,0,0,1-1.143,1.143H3.393A1.143,1.143,0,0,1,2.25,5.089V4.518A1.143,1.143,0,0,1,3.393,3.375Z"/>
    </g>
  </g>
</svg>
