<svg xmlns="http://www.w3.org/2000/svg" width="16" height="11.617" viewBox="0 0 16 11.617">
  <g id="arrows-exchange-alt" transform="translate(-2.662 -4.136)">
    <path id="Path_1037" data-name="Path 1037" d="M3.661,8.944A1,1,0,0,1,3.131,7.1L5.817,4.412A1,1,0,0,1,7.23,5.825l-1.12,1.12h7.544a1,1,0,0,1,0,2H3.661Z" transform="translate(0)" fill="#fff"/>
    <path id="Path_1038" data-name="Path 1038" d="M16.342,8.656a1,1,0,0,1,.531,1.847l-2.686,2.686a1,1,0,1,1-1.413-1.413l1.12-1.12H6.35a1,1,0,1,1,0-2h9.993Z" transform="translate(1.321 2.255)" fill="#fff"/>
  </g>
</svg>
