<svg xmlns="http://www.w3.org/2000/svg" width="24" height="24" viewBox="0 0 24 24">
  <g id="Group_80" data-name="Group 80" transform="translate(-751 -725)">
    <rect id="Rectangle_40" data-name="Rectangle 40" width="24" height="24" transform="translate(751 725)" fill="none"/>
    <g id="Group_1269" data-name="Group 1269" transform="translate(796 579.57)">
      <path id="md-brush" d="M18,4.72,16.875,3.612a.849.849,0,0,0-1.186,0l-7.547,7.4,2.314,2.268L18,5.884A.808.808,0,0,0,18,4.72Z" transform="translate(-43.25 146.629)"/>
      <path id="md-brush-2" data-name="md-brush" d="M6.461,12.452a2.5,2.5,0,0,0-2.525,2.475,1.692,1.692,0,0,1-1.686,1.65,4.378,4.378,0,0,0,3.368,1.654,3.335,3.335,0,0,0,3.368-3.3A2.5,2.5,0,0,0,6.46,12.452Z" transform="translate(-43.25 146.629)"/>
    </g>
  </g>
</svg>
