<svg xmlns="http://www.w3.org/2000/svg" width="24" height="24" viewBox="0 0 24 24">
  <g id="Group_80" data-name="Group 80" transform="translate(-751 -725)">
    <rect id="Rectangle_40" data-name="Rectangle 40" width="24" height="24" transform="translate(751 725)" fill="none"/>
    <g id="Group_1110" data-name="Group 1110" transform="translate(796 579.57)">
      <path id="md-brush" d="M18,4.72,16.875,3.612a.849.849,0,0,0-1.186,0l-7.547,7.4,2.314,2.268L18,5.884A.808.808,0,0,0,18,4.72Z" transform="translate(-43.25 146.629)" fill="#707070"/>
      <g id="md-brush-2" data-name="md-brush" transform="translate(-43.25 146.629)" fill="none">
        <path d="M6.461,12.452a2.5,2.5,0,0,0-2.525,2.475,1.692,1.692,0,0,1-1.686,1.65,4.378,4.378,0,0,0,3.368,1.654,3.335,3.335,0,0,0,3.368-3.3A2.5,2.5,0,0,0,6.46,12.452Z" stroke="none"/>
        <path d="M 6.460615158081055 13.45168685913086 C 5.619885921478271 13.45184707641602 4.935875415802002 14.11360740661621 4.935875415802002 14.92690658569336 C 4.935875415802002 15.73048210144043 4.599747657775879 16.38379287719727 4.104744434356689 16.84062576293945 C 4.577076435089111 17.087646484375 5.107803821563721 17.23058700561523 5.617685317993164 17.23058700561523 C 6.923235416412354 17.23058700561523 7.98537540435791 16.19875717163086 7.98537540435791 14.93045711517334 C 7.98537540435791 14.11519622802734 7.301354885101318 13.45184707641602 6.460615158081055 13.45168685913086 M 6.460365295410156 12.45168685913086 L 6.460875511169434 12.45168685913086 C 6.460704803466797 12.45168685913086 6.460536003112793 12.45168685913086 6.460365295410156 12.45168685913086 Z M 6.460620403289795 12.45168685913086 C 7.856852531433105 12.45182228088379 8.98537540435791 13.55909156799316 8.98537540435791 14.93045711517334 C 8.98537540435791 16.75195693969727 7.47829532623291 18.23058700561523 5.617685317993164 18.23058700561523 C 4.346295356750488 18.23058700561523 3.025125503540039 17.58752822875977 2.249995231628418 16.57671737670898 C 2.960615158081055 16.57671737670898 3.935875415802002 16.00882720947266 3.935875415802002 14.92690658569336 C 3.935875415802002 13.55908966064453 5.064398288726807 12.45182228088379 6.460620403289795 12.45168685913086 Z" stroke="none" fill="#707070"/>
      </g>
    </g>
  </g>
</svg>
