<svg xmlns="http://www.w3.org/2000/svg" xmlns:xlink="http://www.w3.org/1999/xlink" width="82" height="82" viewBox="0 0 82 82">
  <defs>
    <clipPath id="clip-path">
      <circle id="Ellipse_444" data-name="Ellipse 444" cx="40" cy="40" r="40" transform="translate(4757 1727)" fill="#fff" stroke="#707070" stroke-width="1"/>
    </clipPath>
  </defs>
  <g id="Group_1111" data-name="Group 1111" transform="translate(-4856 -1726)">
    <g id="Ellipse_444-2" data-name="Ellipse 444" transform="translate(4857 1727)" fill="#e1e1e1" stroke="#707070" stroke-width="1">
      <circle cx="40" cy="40" r="40" stroke="none"/>
      <circle cx="40" cy="40" r="40.5" fill="none"/>
    </g>
    <g id="Mask_Group_1" data-name="Mask Group 1" transform="translate(100)" clip-path="url(#clip-path)">
      <g id="andy-warhol" transform="translate(4748.265 1718.147)">
        <g id="Layer_1" data-name="Layer 1">
          <path id="Path_1899" data-name="Path 1899" d="M68.509,35.235H28.961c-.9,3.3-1.348,8.717,0,16.085L31.6,50.156l1.34,6.886,3.386-1.532,8.541.766h7.752l8.541-.766,3.393,1.532,1.325-6.832,2.635,1.164C69.864,43.967,69.42,38.551,68.509,35.235Z" fill="#b8cad1"/>
          <path id="Path_1900" data-name="Path 1900" d="M31.979,36.154a25.345,25.345,0,0,0,2.413-1.877c.766-.7,1.532-1.4,2.3-2.175A19.225,19.225,0,0,0,38.7,29.6a25.935,25.935,0,0,0,1.616-2.8,25.223,25.223,0,0,1-1.157,3.064A23.546,23.546,0,0,1,37.533,32.8a14.753,14.753,0,0,1-2.152,2.589,10.724,10.724,0,0,1-2.8,1.984.682.682,0,0,1-.682-1.18Z" fill="#bec5c7"/>
          <path id="Path_1901" data-name="Path 1901" d="M30.44,35.656a28.05,28.05,0,0,0-1.026,7.66,49.9,49.9,0,0,0,.59,7.9l-1.471-.766,2.658-1.126h.046a.98.98,0,0,1,1.287.521,1.532,1.532,0,0,1,.069.23l1.08,6.894-1.057-.544,3.4-1.532h.054a.536.536,0,0,1,.306,0l8.479,1.333h-8.6l.352-.061-3.363,1.57a.766.766,0,0,1-1-.36,1.065,1.065,0,0,1-.046-.146h0L30.639,50.4l1.409.766-2.62,1.21a1.049,1.049,0,0,1-1.386-.513.8.8,0,0,0-.077-.214V51.6a51.78,51.78,0,0,1-1.157-8.265,30.47,30.47,0,0,1,.659-8.487,1.536,1.536,0,0,1,2.987.712v.084Z" fill="#333"/>
          <path id="Path_1902" data-name="Path 1902" d="M69.987,34.844a30.769,30.769,0,0,1,.666,8.487,51.788,51.788,0,0,1-1.1,8.234v.046a1.049,1.049,0,0,1-1.241.812l-.222-.077-2.612-1.21,1.4-.766L65.3,57.157h0a.766.766,0,0,1-.9.567l-.153-.054L60.88,56.077l.352.061h-8.6l8.487-1.44a.567.567,0,0,1,.3,0h.054l3.409,1.532-1.065.544,1.08-6.894a.98.98,0,0,1,1.126-.812.766.766,0,0,1,.23.061H66.3l2.635,1.279-1.471.766a49.022,49.022,0,0,0,.59-7.9,27.468,27.468,0,0,0-1.026-7.66h0a1.533,1.533,0,1,1,2.934-.889Z" fill="#333"/>
          <path id="Path_1903" data-name="Path 1903" d="M83.545,74.116a5.944,5.944,0,0,0-4.42-4.956c-2.3-.659-20.337-5.438-20.337-5.438V57.042H38.643l.046,6.679S20.681,68.5,18.383,69.16a5.952,5.952,0,0,0-4.427,4.956l-.934,5.438c11.865,5.239,21.915,7.767,35.717,7.767s23.852-2.528,35.71-7.767Z" fill="#414242"/>
          <path id="Path_1904" data-name="Path 1904" d="M68.172,70.63l3.493-3.493L58.789,63.721V57.042H38.643v1.624L50.616,70.63a12.393,12.393,0,0,0,17.556,0Z" fill="#4e5454" opacity="0.18"/>
          <path id="Path_1905" data-name="Path 1905" d="M48.685,62.488a11.237,11.237,0,0,0,5.76-1.279c5.032-3.064,6.327-4.228,7.353-8.073.628-2.375,1.134-5.775,1.134-5.775,1.532,0,4.672-3.332,5.239-6,.689-3.271,0-6-3-6V31.4c0-9.307-5.278-16.744-16.484-16.744S32.209,22.06,32.209,31.4v4c-3,0-3.692,2.727-3,6,.567,2.666,3.738,6,5.239,6,0,0,.5,3.4,1.134,5.775,1.026,3.83,2.3,4.994,7.353,8.073A11.214,11.214,0,0,0,48.685,62.488Z" fill="#fbd3ca"/>
          <path id="Path_1906" data-name="Path 1906" d="M65.169,35.365V31.4c0-9.307-5.278-16.744-16.484-16.744h-.123c-3.064,9.192-6.128,25.277-6.028,33.412,0,3.163.184,8.931.513,13.228a11.49,11.49,0,0,0,5.638,1.218,11.237,11.237,0,0,0,5.76-1.279c5.032-3.064,6.327-4.228,7.353-8.073.628-2.375,1.134-5.775,1.134-5.775,1.532,0,4.672-3.332,5.239-6C68.861,38.092,68.172,35.365,65.169,35.365Z" fill="#f3cac2"/>
          <path id="Path_1907" data-name="Path 1907" d="M48.685,62.488a11.237,11.237,0,0,0,5.76-1.279c5.032-3.064,6.327-4.228,7.353-8.073.628-2.375,1.134-5.775,1.134-5.775,1.532,0,4.672-3.332,5.239-6,.689-3.271,0-6-3-6V31.4c0-9.307-5.278-16.744-16.484-16.744S32.209,22.06,32.209,31.4v4c-3,0-3.692,2.727-3,6,.567,2.666,3.738,6,5.239,6,0,0,.5,3.4,1.134,5.775,1.026,3.83,2.3,4.994,7.353,8.073A11.214,11.214,0,0,0,48.685,62.488Z" fill="none" stroke="#333" stroke-linejoin="round" stroke-width="3.064"/>
          <path id="Path_1908" data-name="Path 1908" d="M44.426,52.538l.529-.107a19.249,19.249,0,0,1,3.753-.375,19.042,19.042,0,0,1,3.784.383l.49.1" fill="none" stroke="#d9a89f" stroke-linecap="round" stroke-miterlimit="10" stroke-width="1.532" opacity="0.36"/>
          <line id="Line_288" data-name="Line 288" x2="2.015" transform="translate(47.682 55.127)" fill="none" stroke="#d9a89f" stroke-linecap="round" stroke-miterlimit="10" stroke-width="1.532" opacity="0.36"/>
          <path id="Path_1909" data-name="Path 1909" d="M46.724,47.912l1.072.345a3.064,3.064,0,0,0,1.785,0l1.111-.345" fill="none" stroke="#d9a89f" stroke-linecap="round" stroke-miterlimit="10" stroke-width="1.532"/>
          <path id="Path_1910" data-name="Path 1910" d="M70.4,35.748,68,35.235l-2.964.6-1.317,3.232a.529.529,0,0,1-1.011-.2v-8.1a11.313,11.313,0,0,0-.666-3.761l5.668,2.16Z" fill="#333"/>
          <path id="Path_1911" data-name="Path 1911" d="M64.794,33.519c.123.176.253.345.375.513V31.4c0-9.307-5.278-16.744-16.484-16.744S32.209,22.06,32.209,31.4v4c-2.972,0-3.677,2.673-3.018,5.9,2.183-.429,9.827-2.3,14.01-8.426,3.692-5.362,8.211-8.97,15.879-8.541l.322.529a10.946,10.946,0,0,0,1.164,1.616C62.358,28.479,63.047,30.884,64.794,33.519Z" fill="#f6c5bb" opacity="0.35"/>
          <path id="Path_1912" data-name="Path 1912" d="M70.891,31.344s-2.206-13.359-9.613-15.113a3.7,3.7,0,0,0-.567-1.172c-2.681-3.508-11.75-6.181-22.566-2.535-9.8,3.309-12.685,18.713-12.868,20.635a1.1,1.1,0,0,1-.069.467l-.651,3.14,9.7-2.037L31.734,37c3.83-.881,6.894-1.632,9.192-4.818L42.542,30.3s6.2-8.855,13.864-8.6l1.992.061,3.539,5.814,2.183,3.4,2.842,2.911L70.4,35.779v-1.1l-.651-2.689Z" fill="#ebf1f2"/>
          <path id="Path_1913" data-name="Path 1913" d="M57.685,20.812,60.1,19l-.475,2.98a1.218,1.218,0,1,1-1.938-1.164Z" fill="#bec5c7"/>
          <path id="Path_1914" data-name="Path 1914" d="M58.444,36.154H55a4.519,4.519,0,0,0-2.689.9,3.455,3.455,0,0,0-1.348,3.432,5.825,5.825,0,0,0,5.99,5.086c3.753,0,5.109-3.569,5.109-5.967v-.283a3.554,3.554,0,0,0-3.615-3.163Z" fill="#f7dad4"/>
          <path id="Path_1915" data-name="Path 1915" d="M42.6,35.763H39.164A3.569,3.569,0,0,0,35.572,39v.283c0,2.459,1.356,6.128,5.094,6.128,3.125,0,5.362-1.938,5.967-5.2A3.585,3.585,0,0,0,45.284,36.7a4.374,4.374,0,0,0-2.681-.934Z" fill="#fce0da"/>
          <path id="Path_1916" data-name="Path 1916" d="M46.334,38.184l-.544-1.417a8.709,8.709,0,0,1,5.783,0l-.552,1.448A7.223,7.223,0,0,0,46.334,38.184Z" fill="#333"/>
          <path id="Path_1917" data-name="Path 1917" d="M45.56,36.33A5.04,5.04,0,0,0,42.5,35.281l-9.559-.046.245,1.593a1.532,1.532,0,0,1,1.363,1.218l.529,3.393h0c.567,2.352,2.214,4.787,5.484,4.787a6.513,6.513,0,0,0,6.58-5.722A4.251,4.251,0,0,0,45.56,36.33Zm.184,3.9c-.552,2.9-2.428,4.558-5.147,4.558-3.163,0-4.312-3.186-4.312-5.324v-.23a2.8,2.8,0,0,1,2.78-2.528H42.45a3.638,3.638,0,0,1,2.206.766A2.834,2.834,0,0,1,45.744,40.229Z" fill="#333"/>
          <path id="Path_1918" data-name="Path 1918" d="M50.324,40.489a6.52,6.52,0,0,0,6.587,5.722c3.263,0,4.91-2.436,5.484-4.787h0l.529-3.393a1.532,1.532,0,0,1,1.356-1.218l.268-1.578-9.559.061a5.017,5.017,0,0,0-3.064,1.049,4.243,4.243,0,0,0-1.6,4.144Zm2.466-3.064a3.615,3.615,0,0,1,2.2-.766h3.386a2.8,2.8,0,0,1,2.834,2.528c0,.084,0,.153,0,.23,0,2.137-1.149,5.324-4.3,5.324-2.75,0-4.642-1.662-5.186-4.558a2.834,2.834,0,0,1,1.072-2.727Z" fill="#333"/>
          <path id="Path_1919" data-name="Path 1919" d="M70.4,34.683l-.651-2.689.375-.214c-1.187-4.075-3.8-10.662-8.847-11.865a3.7,3.7,0,0,0-.567-1.172c-2.681-3.516-12.018-6.894-22.566-2.535C29.942,19.617,26.809,28.341,25.6,33.4l-.766,3.309,9.958-2.4-3.217,2.773s6.013.375,10.93-6.779c3.684-5.362,8.211-8.97,15.871-8.541l.322.521A10.2,10.2,0,0,0,59.861,23.9c1.792,2.007,2.489,4.42,4.236,7.047C66.7,34.844,70.722,35.365,70.4,34.683Z" fill="#e0e9eb"/>
          <path id="Path_1920" data-name="Path 1920" d="M60.566,26.472a15.825,15.825,0,0,1,2.788,2.214c.835.766,1.624,1.586,2.42,2.3a16.852,16.852,0,0,0,5.209,3.309l-2.045,2.076L67.406,32.86l-.95-2.129,2.352-.092,2.466-.138-1.532,1.953a38.59,38.59,0,0,0-1.295-4.5A30.3,30.3,0,0,0,66.594,23.7a16.2,16.2,0,0,0-2.52-3.608,6.664,6.664,0,0,0-3.2-2L59.746,17.8l-.283-1.026a3.96,3.96,0,0,0-1.394-1.616,10.609,10.609,0,0,0-2.443-1.371,17.1,17.1,0,0,0-5.837-1.141A22.512,22.512,0,0,0,38.046,15.71a18.537,18.537,0,0,0-8.02,8.8,20.084,20.084,0,0,0-1,2.911l-.85,3.232c-.59,2.168-1.21,4.3-1.831,6.434l-1.7-1.969c1.218-.138,2.382-.276,3.523-.452s2.3-.337,3.4-.536a15.8,15.8,0,0,0,3.378-.957,12.685,12.685,0,0,0,3.064-1.892,18.084,18.084,0,0,1-2.5,2.773,15.8,15.8,0,0,1-3.156,2.3,13.542,13.542,0,0,1-3.646,1.325c-1.249.26-2.5.414-3.692.582l-2.3.314.6-2.3c.567-2.145,1.134-4.289,1.662-6.427l.766-3.232a22.565,22.565,0,0,1,1.065-3.4,21.279,21.279,0,0,1,3.776-6.128,22.772,22.772,0,0,1,5.592-4.55,26.2,26.2,0,0,1,13.7-3.684A20.628,20.628,0,0,1,57.034,10.3a14.339,14.339,0,0,1,3.34,1.877,7.422,7.422,0,0,1,2.666,3.539l-1.356-1.279a10.364,10.364,0,0,1,5.025,3.125A19.149,19.149,0,0,1,69.7,22.022a34.185,34.185,0,0,1,1.976,4.787A42.13,42.13,0,0,1,72.974,31.8l.36,1.907-1.915.061-2.466.077,1.417-2.3L71.841,35.1l1.494,3.569L69.819,37.18a17.235,17.235,0,0,1-3.309-1.823,12.8,12.8,0,0,1-2.689-2.612,17.35,17.35,0,0,1-1.861-3.064C61.454,28.64,61.017,27.575,60.566,26.472Z" fill="#333"/>
          <path id="Path_1921" data-name="Path 1921" d="M58.789,63.721S76.82,68.5,79.125,69.16a5.944,5.944,0,0,1,4.42,4.956l.9,5.438c-11.857,5.239-21.915,7.767-35.71,7.767s-23.852-2.528-35.717-7.767l.9-5.438a5.952,5.952,0,0,1,4.458-4.956c2.3-.659,20.337-5.438,20.337-5.438" fill="none" stroke="#333" stroke-linejoin="round" stroke-width="3.064"/>
          <line id="Line_289" data-name="Line 289" y2="8.541" transform="translate(38.659 58.597)" fill="none" stroke="#333" stroke-linecap="round" stroke-linejoin="round" stroke-width="3.064"/>
          <line id="Line_290" data-name="Line 290" y2="8.541" transform="translate(58.819 58.597)" fill="none" stroke="#333" stroke-linecap="round" stroke-linejoin="round" stroke-width="3.064"/>
          <path id="Path_1922" data-name="Path 1922" d="M57.747,21a1.363,1.363,0,0,1,.659,0,2.382,2.382,0,0,1,.329.107l.245.123.2.123a4.373,4.373,0,0,1,.574.521A6.764,6.764,0,0,1,60.52,22.9a14.392,14.392,0,0,1,1.034,2.06c.6,1.371,1.034,2.8,1.463,4.075a14.646,14.646,0,0,0,1.946,3.684,9.422,9.422,0,0,0,3.14,2.819,9.682,9.682,0,0,1-3.684-2.3A15.764,15.764,0,0,1,61.7,29.7c-.766-1.333-1.241-2.65-1.9-3.868a14.369,14.369,0,0,0-1.042-1.716,5.828,5.828,0,0,0-.574-.666,1.532,1.532,0,0,0-.237-.184h0a.123.123,0,0,0,.069,0c.092,0,0,.054.391,0a1.152,1.152,0,1,1-.613-2.221Z" fill="#bec5c7"/>
          <path id="Path_1923" data-name="Path 1923" d="M57.448,23.339a5.17,5.17,0,0,0-.766-.13,7.744,7.744,0,0,0-.85,0,9.467,9.467,0,0,0-1.731.169,12.753,12.753,0,0,0-3.378,1.134,23.186,23.186,0,0,0-5.89,4.473l-2.7,2.819a33.542,33.542,0,0,1-2.941,2.735,12.049,12.049,0,0,1-3.631,1.938,39.4,39.4,0,0,1-3.83,1.011h0a.414.414,0,0,1-.506-.314.421.421,0,0,1,.214-.467,19.325,19.325,0,0,0,2.5-1.593,22.925,22.925,0,0,0,2.3-1.946,19.839,19.839,0,0,0,2-2.244,20.543,20.543,0,0,0,1.6-2.528,20.566,20.566,0,0,1-1.532,2.65,19.471,19.471,0,0,1-1.861,2.413,22.275,22.275,0,0,1-2.183,2.152,19.433,19.433,0,0,1-2.5,1.838l-.306-.766c2.482-.766,4.979-1.532,6.733-3.255s3.37-3.83,5.117-5.8a21.884,21.884,0,0,1,6.373-5.109,13.864,13.864,0,0,1,4.006-1.333,11.3,11.3,0,0,1,2.237-.153,9.008,9.008,0,0,1,1.1.115,6.365,6.365,0,0,1,1.126.3,1.011,1.011,0,0,1-.6,1.923Z" fill="#bec5c7"/>
          <path id="Path_1924" data-name="Path 1924" d="M41.5,37.747a1.317,1.317,0,1,0,1.317,1.317A1.317,1.317,0,0,0,41.5,37.747" fill="#717171"/>
          <path id="Path_1925" data-name="Path 1925" d="M55.778,37.747a1.31,1.31,0,1,0,.934.384,1.317,1.317,0,0,0-.934-.384" fill="#717171"/>
          <circle id="Ellipse_531" data-name="Ellipse 531" cx="2.06" cy="2.06" r="2.06" transform="translate(39.103 39.065)" fill="#fde6e1"/>
          <path id="Path_1926" data-name="Path 1926" d="M41.163,39.065a1.992,1.992,0,0,0-.95.245,1.3,1.3,0,0,0,2.428.391A2.045,2.045,0,0,0,41.163,39.065Z" fill="#8d8d8d"/>
          <circle id="Ellipse_532" data-name="Ellipse 532" cx="2.06" cy="2.06" r="2.06" transform="translate(54.254 39.065)" fill="#f9e1dd"/>
          <path id="Path_1927" data-name="Path 1927" d="M54.721,39.831a1.3,1.3,0,0,0,2.359-.613,1.984,1.984,0,0,0-.766-.153,2.053,2.053,0,0,0-1.593.766Z" fill="#8d8d8d"/>
        </g>
      </g>
    </g>
  </g>
</svg>
