<svg xmlns="http://www.w3.org/2000/svg" width="14" height="16" viewBox="0 0 14 16">
  <path id="bell" d="M13.732,11.322C13.128,10.673,12,9.7,12,6.5A4.935,4.935,0,0,0,8,1.651V1A1,1,0,1,0,6,1v.651A4.935,4.935,0,0,0,2,6.5C2,9.7.873,10.673.27,11.322A.975.975,0,0,0,0,12a1,1,0,0,0,1,1H13a1,1,0,0,0,1-1,.975.975,0,0,0-.269-.678ZM2.111,11.5A7.826,7.826,0,0,0,3.5,6.518c0-.006,0-.012,0-.018a3.5,3.5,0,0,1,7,0c0,.006,0,.012,0,.018A7.824,7.824,0,0,0,11.89,11.5ZM7,16a2,2,0,0,0,2-2H5A2,2,0,0,0,7,16Z" transform="translate(-0.001)"/>
</svg>
