<svg xmlns="http://www.w3.org/2000/svg" width="20" height="20.002" viewBox="0 0 20 20.002">
  <g id="Layer_x0020_1" transform="translate(0 -0.001)" opacity="0.8">
    <g id="_1421344023328" transform="translate(0 0.001)">
      <path id="Path_71" data-name="Path 71" d="M19.7,12.421A10,10,0,1,1,12.418.3,10,10,0,0,1,19.7,12.421h0Z" transform="translate(0 -0.001)" fill="#f7931a"/>
      <path id="Path_72" data-name="Path 72" d="M1005.014,717.842c.2-1.331-.814-2.046-2.2-2.524l.45-1.8-1.1-.273-.437,1.755c-.289-.072-.585-.14-.879-.207l.441-1.767-1.1-.273-.45,1.8c-.239-.054-.473-.108-.7-.165v-.006L997.53,714l-.292,1.172s.814.187.8.2a.584.584,0,0,1,.511.638l-.512,2.054a.909.909,0,0,1,.114.037l-.116-.029-.718,2.877a.4.4,0,0,1-.5.261c.011.016-.8-.2-.8-.2l-.545,1.256,1.428.356c.266.067.526.136.782.2l-.454,1.823,1.1.274.45-1.8c.3.081.59.156.875.227l-.448,1.8,1.1.273.454-1.82c1.871.354,3.279.211,3.871-1.481a1.926,1.926,0,0,0-1.008-2.661,1.75,1.75,0,0,0,1.4-1.611Zm-2.508,3.516c-.339,1.363-2.634.626-3.378.441l.6-2.416C1000.475,719.569,1002.861,719.937,1002.506,721.358Zm.339-3.536c-.309,1.24-2.219.61-2.839.455l.547-2.191c.619.154,2.614.443,2.292,1.736Z" transform="translate(-990.604 -709.266)" fill="#fff"/>
    </g>
  </g>
</svg>
