<svg xmlns="http://www.w3.org/2000/svg" width="24" height="24" viewBox="0 0 24 24">
  <g id="Group_80" data-name="Group 80" transform="translate(-751 -725)">
    <rect id="Rectangle_40" data-name="Rectangle 40" width="24" height="24" transform="translate(751 725)" fill="none"/>
    <path id="Subtraction_35" data-name="Subtraction 35" d="M8,16a8,8,0,1,1,8-8A8.009,8.009,0,0,1,8,16ZM8,9.248H8l2.493,2.493a.882.882,0,1,0,1.247-1.247L9.248,8l2.494-2.494a.882.882,0,0,0-1.247-1.247L8,6.753,5.506,4.259A.882.882,0,0,0,4.259,5.506L6.753,8,4.259,10.495a.881.881,0,1,0,1.247,1.247L8,9.248Z" transform="translate(755 729)"/>
  </g>
</svg>
