<svg xmlns="http://www.w3.org/2000/svg" width="24" height="24" viewBox="0 0 24 24">
  <g id="Group_80" data-name="Group 80" transform="translate(-751 -725)">
    <rect id="Rectangle_40" data-name="Rectangle 40" width="24" height="24" transform="translate(751 725)" fill="none"/>
    <g id="Subtraction_34" data-name="Subtraction 34" transform="translate(755 729)" fill="none">
      <path d="M8,16a8,8,0,1,1,8-8A8.009,8.009,0,0,1,8,16ZM8,9.248H8l2.493,2.493a.882.882,0,1,0,1.247-1.247L9.248,8l2.494-2.494a.882.882,0,0,0-1.247-1.247L8,6.753,5.506,4.259A.882.882,0,0,0,4.259,5.506L6.753,8,4.259,10.495a.881.881,0,1,0,1.247,1.247L8,9.248Z" stroke="none"/>
      <path d="M 8.000100135803223 16.00020027160645 C 12.41137027740479 16.00020027160645 16.00020027160645 12.41137027740479 16.00020027160645 8.000100135803223 C 16.00020027160645 3.588830232620239 12.41137027740479 1.358032193365943e-07 8.000100135803223 1.358032193365943e-07 C 3.588830232620239 1.358032193365943e-07 1.358032193365943e-07 3.588830232620239 1.358032193365943e-07 8.000100135803223 C 1.358032193365943e-07 12.41137027740479 3.588830232620239 16.00020027160645 8.000100135803223 16.00020027160645 M 8.000100135803223 9.247509956359863 L 7.999390125274658 9.248209953308105 L 5.505300045013428 11.74139976501465 C 5.339600086212158 11.9079704284668 5.118090152740479 11.99970054626465 4.881599903106689 11.99970054626465 C 4.645689964294434 11.99970054626465 4.424499988555908 11.9079704284668 4.258800029754639 11.74139976501465 C 4.092080116271973 11.575119972229 4.000270366668701 11.35377979278564 4.000270366668701 11.11814975738525 C 4.000270366668701 10.88251972198486 4.092080116271973 10.66118049621582 4.258800029754639 10.49489974975586 L 6.752700328826904 8.000100135803223 L 4.258800029754639 5.506200313568115 C 4.092470169067383 5.339869976043701 4.000870227813721 5.118370056152344 4.000870227813721 4.882500171661377 C 4.000870227813721 4.64663028717041 4.092470169067383 4.425130367279053 4.258800029754639 4.258800029754639 C 4.425509929656982 4.092080116271973 4.647010326385498 4.000270366668701 4.882500171661377 4.000270366668701 C 5.117990016937256 4.000270366668701 5.339489936828613 4.092080116271973 5.506200313568115 4.258800029754639 L 8.000100135803223 6.752700328826904 L 10.49400043487549 4.258800029754639 C 10.66071033477783 4.092520236968994 10.88220977783203 4.000950336456299 11.11770057678223 4.000950336456299 C 11.35319042205811 4.000950336456299 11.5746898651123 4.092520236968994 11.74139976501465 4.258800029754639 C 12.08440971374512 4.602710247039795 12.08440971374512 5.162290096282959 11.74139976501465 5.506200313568115 L 9.247500419616699 8.000100135803223 L 11.74139976501465 10.49400043487549 C 11.90826988220215 10.66087055206299 12.00008010864258 10.88269996643066 11.99991989135742 11.11861991882324 C 11.99977016448975 11.35410022735596 11.90795993804932 11.57526969909668 11.74139976501465 11.74139976501465 C 11.57396030426025 11.9079704284668 11.35245990753174 11.99970054626465 11.11770057678223 11.99970054626465 C 10.88207054138184 11.99970054626465 10.66057014465332 11.9079704284668 10.49400043487549 11.74139976501465 L 8.000100135803223 9.247509956359863 M 8.000100135803223 17.50020027160645 C 2.761730194091797 17.50020027160645 -1.49999988079071 13.23847007751465 -1.49999988079071 8.000100135803223 C -1.49999988079071 2.761730194091797 2.761730194091797 -1.49999988079071 8.000100135803223 -1.49999988079071 C 13.23847007751465 -1.49999988079071 17.50020027160645 2.761730194091797 17.50020027160645 8.000100135803223 C 17.50020027160645 13.23847007751465 13.23847007751465 17.50020027160645 8.000100135803223 17.50020027160645 Z" stroke="none" fill="#707070"/>
    </g>
  </g>
</svg>
