<svg xmlns="http://www.w3.org/2000/svg" width="17.444" height="20" viewBox="0 0 17.444 20">
  <path id="Path_3_" d="M16.434,15.447a1.007,1.007,0,0,0-.984.8l-3.8-.181a1.1,1.1,0,0,0,.022-.217,1.46,1.46,0,0,0-.058-.391l1.382-.8a1.024,1.024,0,1,0-.116-.181l-1.339.774a1.4,1.4,0,0,0-2.584,1.064l-2.49.6a1.384,1.384,0,0,0-.4-.9l.449-.622a1.009,1.009,0,1,0-.2-.094l-.413.572A1.423,1.423,0,0,0,4.882,15.6L4.455,13.16a1.4,1.4,0,1,0-.955-2.6L2.421,8.455a1.411,1.411,0,0,0,.557-.514l.9.239a.981.981,0,0,0-.014.145A1.02,1.02,0,0,0,4.78,9.338,1.013,1.013,0,1,0,3.926,7.97l-.847-.224a1.375,1.375,0,0,0,.065-.869l2.5-1.151a1.4,1.4,0,0,0,1.911.268,1.39,1.39,0,0,0,.362-1.889L9.507,2.549a1.4,1.4,0,0,0,.644.217v.688a1.008,1.008,0,1,0,.217,0V2.766a1.382,1.382,0,0,0,.565-.166l1.744,1.99a1.4,1.4,0,1,0,2.432.369l.543-.3a1.026,1.026,0,1,0-.116-.181l-.514.29a1.395,1.395,0,0,0-2.193-.333L11.121,2.484a1.458,1.458,0,0,0,.4-.492l1.5.246A1,1,0,0,0,14.993,1.9a1.005,1.005,0,0,0-2,.1L11.6,1.775a1.4,1.4,0,1,0-2.273.644L7.777,3.932a1.4,1.4,0,0,0-.941-.478V2.4a1.011,1.011,0,0,0,.9-1.057,1,1,0,0,0-1-.948A1.009,1.009,0,0,0,6.626,2.4v1.05A1.4,1.4,0,0,0,5.519,5.546L3.087,6.66a1.388,1.388,0,0,0-.4-.536l.948-1.708A1,1,0,0,0,4.9,3.562a1.01,1.01,0,1,0-1.469.774L2.508,6a1.4,1.4,0,1,0-.282,2.541l1.093,2.135a1.385,1.385,0,0,0-.536.84l-.8-.232a.953.953,0,0,0,.029-.246,1.009,1.009,0,0,0-1.99-.232,1,1,0,0,0,.637,1.18A1.01,1.01,0,0,0,1.907,11.5l.847.246v.065A1.375,1.375,0,0,0,3.4,12.979l-.543.709a.985.985,0,1,0,.152.159l.586-.767a1.36,1.36,0,0,0,.565.116.352.352,0,0,0,.087-.007l.434,2.454a1.418,1.418,0,0,0-1.006,1.3,1.4,1.4,0,0,0,2.512.883l2.027.9a1.191,1.191,0,0,0-.029.224,1.012,1.012,0,1,0,.1-.434L6.308,17.64a1.291,1.291,0,0,0,.159-.514l2.577-.63a1.393,1.393,0,0,0,2.092.427l.963.832a1.012,1.012,0,0,0,1.788.941,1.012,1.012,0,0,0-1.672-1.136l-.919-.789a1.424,1.424,0,0,0,.3-.514l3.829.188a1.009,1.009,0,0,0,1.013,1,1,1,0,1,0-.007-2Z" transform="translate(0.004 0.03)" fill="#ff473e"/>
</svg>
