<svg xmlns="http://www.w3.org/2000/svg" width="16" height="16.002" viewBox="0 0 16 16.002">
  <path id="Path_2805" data-name="Path 2805" d="M18.742,5.339l-2.08-2.08a.885.885,0,0,0-1.253,0L12.636,6.032,11.542,4.957A.886.886,0,0,0,10.289,6.21l.64.64-7.8,7.8a.436.436,0,0,0-.133.32v3.591A.44.44,0,0,0,3.444,19H7.036a.417.417,0,0,0,.311-.133l7.8-7.8.64.64a.886.886,0,1,0,1.253-1.253L15.951,9.374,18.724,6.6A.88.88,0,0,0,18.742,5.339ZM6.484,17.223,4.778,15.517l7.164-7.164,1.707,1.707Z" transform="translate(-3 -2.999)" fill="#707070"/>
</svg>
