<svg xmlns="http://www.w3.org/2000/svg" width="12" height="16" viewBox="0 0 12 16">
  <g id="Subtraction_2" data-name="Subtraction 2" fill="none">
    <path d="M10,16H2a2,2,0,0,1-2-2V2A2,2,0,0,1,2,0H8l4,4V14A2,2,0,0,1,10,16Z" stroke="none"/>
    <path d="M 9.999895095825195 14.50020027160645 C 10.27549457550049 14.50020027160645 10.49970531463623 14.27599048614502 10.49970531463623 14.00040054321289 L 10.49970531463623 4.620701789855957 L 7.380556106567383 1.50000011920929 L 1.999805092811584 1.50000011920929 C 1.724215030670166 1.50000011920929 1.500005006790161 1.724210143089294 1.500005006790161 1.999800086021423 L 1.500005006790161 14.00040054321289 C 1.500005006790161 14.27599048614502 1.724215030670166 14.50020027160645 1.999805092811584 14.50020027160645 L 9.999895095825195 14.50020027160645 M 9.999895095825195 16.00020027160645 L 1.999805092811584 16.00020027160645 C 0.8971150517463684 16.00020027160645 5.041503754910082e-06 15.10309028625488 5.041503754910082e-06 14.00040054321289 L 5.041503754910082e-06 1.999800086021423 C 5.041503754910082e-06 0.8971101641654968 0.8971150517463684 1.358032193365943e-07 1.999805092811584 1.358032193365943e-07 L 8.002095222473145 1.358032193365943e-07 L 11.99970531463623 3.999600172042847 L 11.99970531463623 14.00040054321289 C 11.99970531463623 15.10309028625488 11.10259532928467 16.00020027160645 9.999895095825195 16.00020027160645 Z" stroke="none" fill="currentColor"/>
  </g>
</svg>
