<svg xmlns="http://www.w3.org/2000/svg" width="24" height="24" viewBox="0 0 24 24">
  <g id="Group_80" transform="translate(-751 -725)">
    <rect id="Rectangle_40"  width="24" height="24" transform="translate(751 725)" fill="none"/>
    <path id="Icon_material-attach-money"  d="M14.351,11.522c-2.018-.524-2.667-1.067-2.667-1.911,0-.969.9-1.644,2.4-1.644,1.582,0,2.169.756,2.222,1.867h1.964a3.543,3.543,0,0,0-2.853-3.387V4.5H12.751V6.42C11.027,6.793,9.64,7.913,9.64,9.629c0,2.053,1.7,3.076,4.178,3.671,2.222.533,2.667,1.316,2.667,2.142,0,.613-.436,1.591-2.4,1.591-1.831,0-2.551-.818-2.649-1.867H9.48a3.724,3.724,0,0,0,3.271,3.4V20.5h2.667V18.589c1.733-.329,3.111-1.333,3.111-3.156C18.529,12.909,16.369,12.047,14.351,11.522Z" transform="translate(748.996 724.5)"/>
  </g>
</svg>
