<svg xmlns="http://www.w3.org/2000/svg" width="10.4" height="12" viewBox="0 0 10.4 12">
  <g id="Polygon_7" data-name="Polygon 7" transform="translate(10.4) rotate(90)" fill="currentColor">
    <path d="M 8.537179946899414 9.900001525878906 L 3.462820053100586 9.900001525878906 C 2.920639991760254 9.900001525878906 2.435070037841797 9.619710922241211 2.163899898529053 9.150211334228516 C 1.89274001121521 8.680721282958984 1.892600059509277 8.120040893554688 2.163539886474609 7.650411128997803 L 4.700719833374023 3.252641439437866 C 4.971809864044189 2.782751321792603 5.457520008087158 2.502221345901489 6 2.502221345901489 C 6.542479991912842 2.502221345901489 7.028190135955811 2.782751321792603 7.299280166625977 3.252641439437866 L 9.836460113525391 7.650411128997803 C 10.10739994049072 8.120040893554688 10.10725975036621 8.680721282958984 9.836099624633789 9.150211334228516 C 9.564929962158203 9.619710922241211 9.079360008239746 9.900001525878906 8.537179946899414 9.900001525878906 Z" stroke="none"/>
    <path d="M 6 3.00222110748291 C 5.826340198516846 3.00222110748291 5.394309997558594 3.050971031188965 5.133820056915283 3.502490997314453 L 2.596639633178711 7.900271415710449 C 2.33627986907959 8.351561546325684 2.510069847106934 8.749851226806641 2.596879959106445 8.900140762329102 C 2.683679580688477 9.050431251525879 2.94182014465332 9.400001525878906 3.462820053100586 9.400001525878906 L 8.537179946899414 9.400001525878906 C 9.05817985534668 9.400001525878906 9.316320419311523 9.050431251525879 9.403120040893555 8.900140762329102 C 9.489930152893066 8.749851226806641 9.66372013092041 8.351561546325684 9.403360366821289 7.900271415710449 L 6.866179943084717 3.502490997314453 C 6.605690002441406 3.050971031188965 6.173659801483154 3.00222110748291 6 3.00222110748291 M 6 2.002219200134277 C 6.673769950866699 2.002219200134277 7.347539901733398 2.335736274719238 7.732369899749756 3.002771377563477 L 10.26955032348633 7.400551319122314 C 11.03878021240234 8.733891487121582 10.07649993896484 10.40000152587891 8.537179946899414 10.40000152587891 L 3.462820053100586 10.40000152587891 C 1.923500061035156 10.40000152587891 0.9612197875976563 8.733891487121582 1.730449676513672 7.400551319122314 L 4.267630100250244 3.002771377563477 C 4.652460098266602 2.335736274719238 5.326230049133301 2.002219200134277 6 2.002219200134277 Z" stroke="none" fill="currentColor"/>
  </g>
</svg>
