<svg xmlns="http://www.w3.org/2000/svg" width="16" height="14.076" viewBox="0 0 16 14.076">
  <g id="arrow-down-circle" transform="translate(-6.625 -9.125)">
    <path id="Path_28" data-name="Path 28" d="M10.356,17.1a.791.791,0,0,1,1.12,0l4.187,4.189L19.851,17.1a.792.792,0,0,1,1.12,1.12l-4.747,4.747a.791.791,0,0,1-1.12,0l-4.747-4.747a.791.791,0,0,1,0-1.12Z" transform="translate(-1.038 -3.002)" fill-rule="evenodd" fill="currentColor"/>
    <path id="Path_29" data-name="Path 29" d="M17.666,10.125a.791.791,0,0,1,.791.791v7.912a.791.791,0,0,1-1.582,0V10.916A.791.791,0,0,1,17.666,10.125Z" transform="translate(-3.041 -1)" fill-rule="evenodd" fill="currentColor"/>
    <path id="Union_1" data-name="Union 1" d="M8.7,1.582H.791A.791.791,0,0,1,.791,0H15.209a.791.791,0,1,1,0,1.582Z" transform="translate(6.625 21.619)" fill="currentColor"/>
  </g>
</svg>
