<svg xmlns="http://www.w3.org/2000/svg" width="24" height="24" viewBox="0 0 24 24">
  <g id="Group_80" data-name="Group 80" transform="translate(-751 -725)">
    <rect id="Rectangle_40" data-name="Rectangle 40" width="24" height="24" transform="translate(751 725)" fill="none"/>
    <g id="Group_1605" data-name="Group 1605" transform="translate(567 331.004)">
      <path id="Path_2796" data-name="Path 2796" d="M10.622,11.711v6.625h6.625V11.711ZM2.34,18.337H8.965V11.711H2.34Zm0-14.907v6.625H8.965V3.43ZM13.653,2.345,8.965,7.024l4.687,4.687L18.34,7.024Z" transform="translate(185.66 395.655)" fill="#02c58d" opacity="0"/>
      <path id="Path_2795" data-name="Path 2795" d="M56.653,4.689,59,7.032,56.653,9.376,54.309,7.032Zm-6.344.4V8.4H47V5.086Zm8.282,8.282V16.68H55.278V13.368Zm-8.282,0V16.68H47V13.368ZM56.653,2.345,51.965,7.024l4.687,4.687L61.34,7.024ZM51.965,3.43H45.34v6.625h6.625Zm8.282,8.282H53.622v6.625h6.625Zm-8.282,0H45.34v6.625h6.625Z" transform="translate(142.66 395.655)" fill="#707070"/>
    </g>
  </g>
</svg>
