<svg xmlns="http://www.w3.org/2000/svg" width="24" height="24" viewBox="0 0 24 24">
  <g id="Group_80" data-name="Group 80" transform="translate(-751 -725)">
    <rect id="Rectangle_40" data-name="Rectangle 40" width="24" height="24" transform="translate(751 725)" fill="none"/>
    <g id="Icon_material-email" data-name="Icon material-email" transform="translate(752 724.6)" fill="none">
      <path d="M17.4,6H4.6A1.6,1.6,0,0,0,3.008,7.6L3,17.2a1.6,1.6,0,0,0,1.6,1.6H17.4A1.6,1.6,0,0,0,19,17.2V7.6A1.6,1.6,0,0,0,17.4,6Zm0,3.2-6.4,4-6.4-4V7.6l6.4,4,6.4-4Z" stroke="none"/>
      <path d="M 4.600000381469727 6 C 3.719999313354492 6 3.007999420166016 6.719999313354492 3.007999420166016 7.600000381469727 L 3 17.20000076293945 C 3 18.07999992370605 3.719999313354492 18.79999923706055 4.600000381469727 18.79999923706055 L 17.39999961853027 18.79999923706055 C 18.28000068664551 18.79999923706055 19 18.07999992370605 19 17.20000076293945 L 19 7.600000381469727 C 19 6.719999313354492 18.28000068664551 6 17.39999961853027 6 L 4.600000381469727 6 M 11 11.59999942779541 L 17.39999961853027 7.600000381469727 L 17.39999961853027 9.199999809265137 L 11 13.19999980926514 L 4.600000381469727 9.199999809265137 L 4.600000381469727 7.600000381469727 L 11 11.59999942779541 M 4.600000381469727 4.5 L 17.39999961853027 4.5 C 19.10935020446777 4.5 20.5 5.890649795532227 20.5 7.600000381469727 L 20.5 17.20000076293945 C 20.5 18.90934944152832 19.10935020446777 20.29999923706055 17.39999961853027 20.29999923706055 L 4.600000381469727 20.29999923706055 C 2.890649795532227 20.29999923706055 1.5 18.90934944152832 1.5 17.20000076293945 L 1.507999420166016 7.598749160766602 C 1.507999420166016 5.890649795532227 2.895069122314453 4.5 4.600000381469727 4.5 Z" stroke="none" fill="#707070"/>
    </g>
  </g>
</svg>
