<svg id="Component_65_253" data-name="Component 65 – 253" xmlns="http://www.w3.org/2000/svg" width="40" height="40" viewBox="0 0 40 40">
  <rect id="Rectangle_69" data-name="Rectangle 69" width="40" height="40" rx="4" fill="none"/>
  <g id="Group_1593" data-name="Group 1593" transform="translate(-815 -70)">
    <rect id="Rectangle_1932" data-name="Rectangle 1932" width="24" height="24" transform="translate(823 78)" fill="none"/>
    <path id="Icon_material-flip" data-name="Icon material-flip" d="M13.227,16.045h1.455V14.591H13.227Zm2.909-8.727h1.455V5.864H16.136ZM4.5,4.409V14.591a1.459,1.459,0,0,0,1.455,1.455H8.864V14.591H5.955V4.409H8.864V2.955H5.955A1.459,1.459,0,0,0,4.5,4.409ZM16.136,2.955V4.409h1.455A1.459,1.459,0,0,0,16.136,2.955ZM10.318,17.5h1.455V1.5H10.318Zm5.818-4.364h1.455V11.682H16.136ZM13.227,4.409h1.455V2.955H13.227Zm2.909,5.818h1.455V8.773H16.136Zm0,5.818a1.459,1.459,0,0,0,1.455-1.455H16.136Z" transform="translate(823.955 80.5)" fill="#707070"/>
  </g>
</svg>
