<svg xmlns="http://www.w3.org/2000/svg" width="24" height="24" viewBox="0 0 24 24">
  <g id="Group_80" data-name="Group 80" transform="translate(-751 -725)">
    <rect id="Rectangle_40" data-name="Rectangle 40" width="24" height="24" transform="translate(751 725)" fill="none"/>
    <g id="delete" transform="translate(756.771 729)" fill="none">
      <path d="M.875,14.208V3.542H11.542V14.208a1.728,1.728,0,0,1-.521,1.271A1.684,1.684,0,0,1,9.792,16H2.667A1.728,1.728,0,0,1,1.4,15.479,1.731,1.731,0,0,1,.875,14.208ZM12.458.875V2.667H0V.875H3.125L4,0H8.458l.875.875Z" stroke="none"/>
      <path d="M 9.790660858154297 14.60000038146973 C 9.866440773010254 14.59994983673096 9.928071022033691 14.59193992614746 10.03137111663818 14.48873043060303 C 10.10460090637207 14.41557025909424 10.14178085327148 14.35212993621826 10.14178085327148 14.20845031738281 L 10.14178085327148 4.941780090332031 L 2.275111198425293 4.941780090332031 L 2.275111198425293 14.20761013031006 C 2.275201082229614 14.35192012786865 2.31265115737915 14.41580009460449 2.386381149291992 14.48958969116211 C 2.459541082382202 14.56282043457031 2.5229811668396 14.60000038146973 2.666671276092529 14.60000038146973 L 9.790660858154297 14.60000038146973 M 9.79155158996582 16 L 2.666671276092529 16 C 2.166521310806274 16 1.742961168289185 15.82637023925781 1.396001219749451 15.47910976409912 C 1.049041152000427 15.13185024261475 0.8754112124443054 14.70829963684082 0.8751112222671509 14.20845031738281 L 0.8751112222671509 3.5417799949646 L 11.54178142547607 3.5417799949646 L 11.54178142547607 14.20845031738281 C 11.54178142547607 14.70858955383301 11.36815166473389 15.1321496963501 11.0208911895752 15.47910976409912 C 10.67363166809082 15.82606983184814 10.26385116577148 15.99969959259033 9.79155158996582 16 Z M 12.45822143554688 2.666670083999634 L 1.194610604215995e-06 2.666670083999634 L 1.194610604215995e-06 0.8751099705696106 L 3.12489128112793 0.8751099705696106 L 4.000001430511475 0 L 8.458221435546875 0 L 9.333331108093262 0.8751099705696106 L 12.45822143554688 0.8751099705696106 L 12.45822143554688 2.666670083999634 Z" stroke="none" fill="#000"/>
    </g>
  </g>
</svg>
