<svg xmlns="http://www.w3.org/2000/svg" width="19" height="19" viewBox="0 0 19 19">
  <g id="Icon_material-insert-chart" data-name="Icon material-insert-chart" transform="translate(-3 -3)" fill="none">
    <path d="M18.722,4.5H6.278A1.783,1.783,0,0,0,4.5,6.278V18.722A1.783,1.783,0,0,0,6.278,20.5H18.722A1.783,1.783,0,0,0,20.5,18.722V6.278A1.783,1.783,0,0,0,18.722,4.5ZM9.833,16.944H8.056V10.722H9.833Zm3.556,0H11.611V8.056h1.778Zm3.556,0H15.167V13.389h1.778Z" stroke="none"/>
    <path d="M 6.277780532836914 4.5 C 5.299999237060547 4.5 4.5 5.299999237060547 4.5 6.277780532836914 L 4.5 18.72221946716309 C 4.5 19.70000076293945 5.299999237060547 20.5 6.277780532836914 20.5 L 18.72221946716309 20.5 C 19.70000076293945 20.5 20.5 19.70000076293945 20.5 18.72221946716309 L 20.5 6.277780532836914 C 20.5 5.299999237060547 19.70000076293945 4.5 18.72221946716309 4.5 L 6.277780532836914 4.5 M 13.38889026641846 16.94443893432617 L 11.61110973358154 16.94443893432617 L 11.61110973358154 8.055559158325195 L 13.38889026641846 8.055559158325195 L 13.38889026641846 16.94443893432617 M 9.833330154418945 16.94443893432617 L 8.055559158325195 16.94443893432617 L 8.055559158325195 10.7222204208374 L 9.833330154418945 10.7222204208374 L 9.833330154418945 16.94443893432617 M 16.94443893432617 16.94443893432617 L 15.16666984558105 16.94443893432617 L 15.16666984558105 13.38889026641846 L 16.94443893432617 13.38889026641846 L 16.94443893432617 16.94443893432617 M 6.277780532836914 3 L 18.72221946716309 3 C 20.52959060668945 3 22 4.470409393310547 22 6.277780532836914 L 22 18.72221946716309 C 22 20.52959060668945 20.52959060668945 22 18.72221946716309 22 L 6.277780532836914 22 C 4.470409393310547 22 3 20.52959060668945 3 18.72221946716309 L 3 6.277780532836914 C 3 4.470409393310547 4.470409393310547 3 6.277780532836914 3 Z" stroke="none" fill="currentColor"/>
  </g>
</svg>
