<svg xmlns="http://www.w3.org/2000/svg" width="100.211" height="32" viewBox="0 0 100.211 32">
  <path id="Union_4" data-name="Union 4" d="M0,32V6.316H2.105V4.211H4.211V6.316H25.684V32Zm23.579-2.105V8.421H2.105V29.895Zm2.105,0V27.789h2.105v2.105Zm2.105-2.105V25.684h2.105v2.105Zm64.421-1.684V24h5.895v2.105Zm-16,0V24H85.9v2.105Zm-11.368,0V24H62.737V21.895h2.105V24h5.474v2.105Zm-13.895,0V24h5.474v2.105Zm-8,0V14.316H41.263V12.211h3.789V26.105Zm-3.789,0V14.316H37.474V26.105H35.368V12.211h3.789v2.105h2.105V26.105Zm-29.474,0V24h5.895v2.105Zm-2.105,0V12.211H9.684V26.105Zm22.316-.421V4.211H27.789V2.105H6.316V0H32V25.684ZM98.106,24V21.895h2.105V24Zm-8,0V14.316h2.105V24ZM80,24V14.316H76.211V12.211H85.9v2.105H82.106V24Zm-9.684,0V20.211H64.842V18.105h5.474v2.105h2.105V24ZM56.421,24V12.211h2.105V24Zm-7.579,0V12.211h2.105V24ZM15.579,24V14.316H9.684V12.211h5.895v2.105h2.105V24Zm47.158-5.895V14.316h2.105v3.789Zm35.368-1.684V14.316h2.105v2.105Zm-27.789,0V14.316h2.105v2.105Zm21.895-2.105V12.211h5.895v2.105Zm-27.368,0V12.211h5.474v2.105Zm-39.158-8V4.211h2.105V6.316ZM4.211,4.211V2.105H6.316V4.211Z" fill="#f0f"/>
</svg>
