<svg xmlns="http://www.w3.org/2000/svg" width="48" height="48" viewBox="0 0 48 48">
  <g id="Group_1585" data-name="Group 1585" transform="translate(-499 -19)">
    <rect id="Rectangle_1931" data-name="Rectangle 1931" width="48" height="48" transform="translate(499 19)" fill="none"/>
    <g id="Group_1075" data-name="Group 1075" transform="translate(771 77)">
      <g id="Component_115_907" data-name="Component 115 – 907" transform="translate(-268 -54)">
        <circle id="Ellipse_8" data-name="Ellipse 8" cx="20" cy="20" r="20" fill="none"/>
      </g>
      <g id="Group_80" data-name="Group 80" transform="translate(-1011 -771)">
        <rect id="Rectangle_40" data-name="Rectangle 40" width="24" height="24" transform="translate(751 725)" fill="none"/>
        <path id="Path_2793" data-name="Path 2793" d="M2,4A2,2,0,1,0,0,2,2.006,2.006,0,0,0,2,4ZM2,6A2,2,0,1,0,4,8,2.006,2.006,0,0,0,2,6ZM0,14a2,2,0,1,1,2,2A2.006,2.006,0,0,1,0,14Z" transform="translate(761 729)" fill="#707070" fill-rule="evenodd"/>
      </g>
    </g>
  </g>
</svg>
