<svg xmlns="http://www.w3.org/2000/svg" width="19" height="16.6" viewBox="0 0 19 16.6">
  <g id="bxs-shopping-bag-alt" transform="translate(-1.5 -4.5)" fill="none" stroke-linecap="round" stroke-linejoin="round">
    <path d="M18.2,6H3.8a.8.8,0,0,0-.8.8V18a1.6,1.6,0,0,0,1.6,1.6H17.4A1.6,1.6,0,0,0,19,18V6.8A.8.8,0,0,0,18.2,6ZM11,13.2A4.805,4.805,0,0,1,6.2,8.4H7.8a3.2,3.2,0,0,0,6.4,0h1.6A4.805,4.805,0,0,1,11,13.2Z" stroke="none"/>
    <path d="M 3.799999237060547 6 C 3.358169555664063 6 3 6.358169555664063 3 6.80000114440918 L 3 18 C 3 18.88365936279297 3.716339111328125 19.60000038146973 4.600000381469727 19.60000038146973 L 17.39999961853027 19.60000038146973 C 18.28366088867188 19.60000038146973 19 18.88365936279297 19 18 L 19 6.80000114440918 C 19 6.358169555664063 18.64183044433594 6 18.20000076293945 6 L 3.799999237060547 6 M 11 11.60000038146973 C 12.76480007171631 11.60000038146973 14.19999980926514 10.1648006439209 14.19999980926514 8.399999618530273 L 15.80000019073486 8.399999618530273 C 15.80000019073486 11.04693031311035 13.64692974090576 13.19999980926514 11 13.19999980926514 C 8.353070259094238 13.19999980926514 6.199999809265137 11.04693031311035 6.199999809265137 8.399999618530273 L 7.800000190734863 8.399999618530273 C 7.800000190734863 10.1648006439209 9.235199928283691 11.60000038146973 11 11.60000038146973 M 3.799999237060547 4.5 L 18.20000076293945 4.5 C 19.46821975708008 4.5 20.5 5.531780242919922 20.5 6.80000114440918 L 20.5 18 C 20.5 19.7093505859375 19.10935020446777 21.10000038146973 17.39999961853027 21.10000038146973 L 4.600000381469727 21.10000038146973 C 2.890649795532227 21.10000038146973 1.5 19.7093505859375 1.5 18 L 1.5 6.80000114440918 C 1.5 5.531780242919922 2.531780242919922 4.5 3.799999237060547 4.5 Z" stroke="none" fill="currentColor"/>
  </g>
</svg>
