<svg id="Component_65_254" data-name="Component 65 – 254" xmlns="http://www.w3.org/2000/svg" width="40" height="40" viewBox="0 0 40 40">
  <rect id="Rectangle_69" data-name="Rectangle 69" width="40" height="40" rx="4" fill="none"/>
  <g id="Group_1594" data-name="Group 1594" transform="translate(-846 -70)">
    <rect id="Rectangle_1933" data-name="Rectangle 1933" width="24" height="24" transform="translate(854 78)" fill="none"/>
    <path id="Icon_material-rotate-left" data-name="Icon material-rotate-left" d="M8.674,7.865l-1.192-1.2A6.7,6.7,0,0,0,6.105,9.952H7.812A5.016,5.016,0,0,1,8.674,7.865Zm-.862,3.778H6.105a6.682,6.682,0,0,0,1.369,3.288l1.192-1.2a5.067,5.067,0,0,1-.854-2.088Zm.854,4.5a6.7,6.7,0,0,0,3.3,1.361V15.784a5,5,0,0,1-2.079-.871L8.666,16.139ZM13.653,4.095V1.5L9.807,5.346l3.846,3.761V5.8a5.065,5.065,0,0,1,0,9.99V17.5a6.755,6.755,0,0,0,0-13.405Z" transform="translate(853.162 80.5)" fill="#707070"/>
  </g>
</svg>
