<svg id="Component_65_253" data-name="Component 65 – 253" xmlns="http://www.w3.org/2000/svg" width="40" height="40" viewBox="0 0 40 40">
  <rect id="Rectangle_69" data-name="Rectangle 69" width="40" height="40" rx="4" fill="none"/>
  <g id="Group_1593" data-name="Group 1593" transform="translate(-815 -70)">
    <rect id="Rectangle_1932" data-name="Rectangle 1932" width="24" height="24" transform="translate(823 78)" fill="none"/>
    <path id="Icon_material-rotate-right" data-name="Icon material-rotate-right" d="M15.762,5.346,11.917,1.5V4.095a6.755,6.755,0,0,0,0,13.405V15.793a5.065,5.065,0,0,1,0-9.99v3.3Zm3.7,4.606A6.682,6.682,0,0,0,18.1,6.664l-1.2,1.2a4.907,4.907,0,0,1,.862,2.088Zm-5.857,5.832v1.707a6.7,6.7,0,0,0,3.3-1.361l-1.217-1.217A4.89,4.89,0,0,1,13.607,15.784Zm3.288-2.045,1.2,1.192a6.682,6.682,0,0,0,1.369-3.288H17.757a4.984,4.984,0,0,1-.862,2.1Z" transform="translate(822.268 80.5)" fill="#02c58d"/>
  </g>
</svg>
