<svg xmlns="http://www.w3.org/2000/svg" width="24" height="24" viewBox="0 0 24 24">
  <g id="Group_80" data-name="Group 80" transform="translate(-751 -725)">
    <rect id="Rectangle_40" data-name="Rectangle 40" width="24" height="24" transform="translate(751 725)" fill="none"/>
    <g id="Group_1235" data-name="Group 1235" transform="translate(-4956 -423)">
      <path id="Icon_material-insert-chart" data-name="Icon material-insert-chart" d="M18.722,4.5H6.278A1.783,1.783,0,0,0,4.5,6.278V18.722A1.783,1.783,0,0,0,6.278,20.5H18.722A1.783,1.783,0,0,0,20.5,18.722V6.278A1.783,1.783,0,0,0,18.722,4.5ZM9.833,16.944H8.056V10.722H9.833Zm3.556,0H11.611V8.056h1.778Zm3.556,0H15.167V13.389h1.778Z" transform="translate(5706.5 1147.5)"/>
      <g id="Group_1233" data-name="Group 1233" transform="translate(5711 1152)" opacity="0">
        <path id="Icon_material-insert-chart-2" data-name="Icon material-insert-chart" d="M12.278,19.389H10.5V13.167h1.778Zm3.556,0H14.056V10.5h1.778Zm3.556,0H17.611V15.833h1.778Z" transform="translate(-6.944 -6.944)"/>
        <path id="Icon_material-insert-chart-3" data-name="Icon material-insert-chart" d="M18.722,4.5H6.278A1.783,1.783,0,0,0,4.5,6.278V18.722A1.783,1.783,0,0,0,6.278,20.5H18.722A1.783,1.783,0,0,0,20.5,18.722V6.278A1.783,1.783,0,0,0,18.722,4.5Z" transform="translate(-4.5 -4.5)" fill="none" stroke="#000" stroke-width="1.5"/>
      </g>
    </g>
  </g>
</svg>
