<svg xmlns="http://www.w3.org/2000/svg" width="24" height="24" viewBox="0 0 24 24">
  <g id="Group_348" data-name="Group 348" transform="translate(-753 -727)">
    <rect id="Rectangle_40" data-name="Rectangle 40" width="24" height="24" transform="translate(753 727)" fill="none"/>
    <path id="Path_2815" data-name="Path 2815" d="M15.918,9.373V5.137L12.78,2H3.369A1.568,1.568,0,0,0,1.8,3.569v10.98a1.568,1.568,0,0,0,1.569,1.569h5.8Zm-4.706,2.039A2.353,2.353,0,1,1,8.859,9.059,2.35,2.35,0,0,1,11.212,11.412ZM4.153,4.353h7.059V7.49H4.153Zm10.973,8.039,1.388,1.388L12.6,17.686H11.212V16.3Zm2.557.2-.667.667-1.388-1.388.667-.667a.388.388,0,0,1,.557,0l.831.831A.388.388,0,0,1,17.682,12.6Z" transform="translate(755.199 729.157)" fill="#02c58d"/>
  </g>
</svg>
