<svg xmlns="http://www.w3.org/2000/svg" width="15.578" height="16" viewBox="0 0 15.578 16">
  <g id="settings" transform="translate(-2.715 -2.295)">
    <path id="Path_64" data-name="Path 64" d="M16.8,10.73V9.853l1.1-.963a1.146,1.146,0,0,0,.218-1.461L16.77,5.137a1.155,1.155,0,0,0-1.358-.515l-1.393.47a6.5,6.5,0,0,0-.751-.43l-.292-1.444a1.146,1.146,0,0,0-1.146-.922H9.148A1.146,1.146,0,0,0,8,3.217L7.709,4.661a6.579,6.579,0,0,0-.756.43L5.589,4.6a1.146,1.146,0,0,0-.366-.034,1.146,1.146,0,0,0-.991.573L2.879,7.429a1.146,1.146,0,0,0,.235,1.438L4.2,9.859v.877L3.114,11.7a1.146,1.146,0,0,0-.235,1.461l1.352,2.292a1.155,1.155,0,0,0,1.358.515l1.393-.47a6.5,6.5,0,0,0,.751.43l.292,1.444a1.146,1.146,0,0,0,1.146.922h2.7a1.146,1.146,0,0,0,1.146-.922l.292-1.444a6.579,6.579,0,0,0,.756-.43l1.387.47a1.155,1.155,0,0,0,1.358-.515l1.307-2.292a1.146,1.146,0,0,0-.235-1.438Zm-1.026,4.149-1.966-.665a5.077,5.077,0,0,1-1.553.9l-.406,2.057h-2.7l-.407-2.034a5.364,5.364,0,0,1-1.547-.9l-1.971.642L3.871,12.587l1.559-1.375a5.1,5.1,0,0,1,0-1.794L3.871,8,5.223,5.71l1.966.665a5.077,5.077,0,0,1,1.553-.9l.406-2.057h2.7l.407,2.034a5.364,5.364,0,0,1,1.547.9l1.971-.642L17.131,8,15.572,9.378a5.1,5.1,0,0,1,0,1.794l1.559,1.416Z" transform="translate(0)" fill="currentColor"/>
    <path id="Path_65" data-name="Path 65" d="M14.688,18.127a3.4,3.4,0,1,1,2.441-1A3.438,3.438,0,0,1,14.688,18.127Zm0-5.731a2.241,2.241,0,1,0,1.637.656,2.241,2.241,0,0,0-1.637-.656Z" transform="translate(-4.188 -4.394)" fill="currentColor"/>
  </g>
</svg>
