<svg xmlns="http://www.w3.org/2000/svg" width="24" height="24" viewBox="0 0 24 24">
  <g id="Group_80" data-name="Group 80" transform="translate(-751 -725)">
    <rect id="Rectangle_40" data-name="Rectangle 40" width="24" height="24" transform="translate(751 725)" fill="none"/>
    <g id="Subtraction_33" data-name="Subtraction 33" transform="translate(755 729)" fill="none">
      <path d="M8,16a8,8,0,1,1,8-8A8.009,8.009,0,0,1,8,16ZM4.532,7.718A.745.745,0,0,0,4,7.937.753.753,0,0,0,4,9l2.139,2.138a.747.747,0,0,0,1.06,0l5.3-5.3a.75.75,0,0,0-1.061-1.061L6.672,9.546,5.063,7.937A.745.745,0,0,0,4.532,7.718Z" stroke="none"/>
      <path d="M 8.000100135803223 16.00020027160645 C 12.41137027740479 16.00020027160645 16.00020027160645 12.41137027740479 16.00020027160645 8.000100135803223 C 16.00020027160645 3.588830232620239 12.41137027740479 1.358032193365943e-07 8.000100135803223 1.358032193365943e-07 C 3.588830232620239 1.358032193365943e-07 1.358032193365943e-07 3.588830232620239 1.358032193365943e-07 8.000100135803223 C 1.358032193365943e-07 12.41137027740479 3.588830232620239 16.00020027160645 8.000100135803223 16.00020027160645 M 4.532400131225586 7.717730045318604 C 4.732779979705811 7.717730045318604 4.921040058135986 7.795639991760254 5.0625 7.937099933624268 L 6.671700000762939 9.546299934387207 L 11.4443998336792 4.772700309753418 C 11.58629989624023 4.631230354309082 11.77472019195557 4.553319931030273 11.97494983673096 4.553319931030273 C 12.17518043518066 4.553319931030273 12.36359977722168 4.631230354309082 12.50549983978271 4.772700309753418 C 12.79715061187744 5.065239906311035 12.79715061187744 5.541260242462158 12.50549983978271 5.833800315856934 L 7.201800346374512 11.13660049438477 C 7.060480117797852 11.27879047393799 6.872220039367676 11.35710048675537 6.671700000762939 11.35710048675537 C 6.472050189971924 11.35710048675537 6.283790111541748 11.27879047393799 6.141600131988525 11.13660049438477 L 4.002300262451172 8.998200416564941 C 3.710650205612183 8.705659866333008 3.710650205612183 8.229640007019043 4.002300262451172 7.937099933624268 C 4.143760204315186 7.795639991760254 4.332020282745361 7.717730045318604 4.532400131225586 7.717730045318604 M 8.000100135803223 17.50020027160645 C 2.761730194091797 17.50020027160645 -1.49999988079071 13.23847007751465 -1.49999988079071 8.000100135803223 C -1.49999988079071 2.761730194091797 2.761730194091797 -1.49999988079071 8.000100135803223 -1.49999988079071 C 13.23847007751465 -1.49999988079071 17.50020027160645 2.761730194091797 17.50020027160645 8.000100135803223 C 17.50020027160645 13.23847007751465 13.23847007751465 17.50020027160645 8.000100135803223 17.50020027160645 Z" stroke="none" fill="#707070"/>
    </g>
  </g>
</svg>
