<svg xmlns="http://www.w3.org/2000/svg" width="24" height="24" viewBox="0 0 24 24">
  <g id="Group_80" data-name="Group 80" transform="translate(-751 -725)">
    <rect id="Rectangle_40" data-name="Rectangle 40" width="24" height="24" transform="translate(751 725)" fill="none"/>
    <path id="Subtraction_32" data-name="Subtraction 32" d="M8,16a8,8,0,1,1,8-8A8.009,8.009,0,0,1,8,16ZM4.532,7.718A.745.745,0,0,0,4,7.937.753.753,0,0,0,4,9l2.139,2.138a.747.747,0,0,0,1.06,0l5.3-5.3a.75.75,0,0,0-1.061-1.061L6.672,9.546,5.063,7.937A.745.745,0,0,0,4.532,7.718Z" transform="translate(755 729)"/>
  </g>
</svg>
