<svg xmlns="http://www.w3.org/2000/svg" width="14.77" height="16" viewBox="0 0 14.77 16">
  <path id="music" d="M14.769.923V11.692a1.264,1.264,0,0,1-.327.856,2.19,2.19,0,0,1-.827.582,5.41,5.41,0,0,1-1,.308,4.7,4.7,0,0,1-.928.1,4.617,4.617,0,0,1-.928-.1,5.5,5.5,0,0,1-1-.308,2.177,2.177,0,0,1-.827-.582,1.282,1.282,0,0,1,0-1.711,2.177,2.177,0,0,1,.827-.582,5.5,5.5,0,0,1,1-.308,4.617,4.617,0,0,1,.928-.1,4.461,4.461,0,0,1,1.846.375V5.058L6.153,7.336v6.817a1.264,1.264,0,0,1-.327.856A2.19,2.19,0,0,1,5,15.591,5.41,5.41,0,0,1,4,15.9a4.728,4.728,0,0,1-.928.1,4.579,4.579,0,0,1-.928-.1,5.535,5.535,0,0,1-1-.308,2.175,2.175,0,0,1-.827-.582,1.282,1.282,0,0,1,0-1.711,2.166,2.166,0,0,1,.827-.582,5.565,5.565,0,0,1,1-.308,4.617,4.617,0,0,1,.928-.1,4.461,4.461,0,0,1,1.846.375v-9.3a.887.887,0,0,1,.183-.543A.951.951,0,0,1,5.576,2.5l8-2.461A.849.849,0,0,1,13.846,0,.89.89,0,0,1,14.5.269.89.89,0,0,1,14.769.923Z" transform="translate(0.001)" fill="currentColor"/>
</svg>
