<svg xmlns="http://www.w3.org/2000/svg" width="17.77" height="19" viewBox="0 0 17.77 19">
  <g id="music" transform="translate(1.501 1.5)" fill="none">
    <path d="M14.769.923V11.692a1.264,1.264,0,0,1-.327.856,2.19,2.19,0,0,1-.827.582,5.41,5.41,0,0,1-1,.308,4.7,4.7,0,0,1-.928.1,4.617,4.617,0,0,1-.928-.1,5.5,5.5,0,0,1-1-.308,2.177,2.177,0,0,1-.827-.582,1.282,1.282,0,0,1,0-1.711,2.177,2.177,0,0,1,.827-.582,5.5,5.5,0,0,1,1-.308,4.617,4.617,0,0,1,.928-.1,4.461,4.461,0,0,1,1.846.375V5.058L6.153,7.336v6.817a1.264,1.264,0,0,1-.327.856A2.19,2.19,0,0,1,5,15.591,5.41,5.41,0,0,1,4,15.9a4.728,4.728,0,0,1-.928.1,4.579,4.579,0,0,1-.928-.1,5.535,5.535,0,0,1-1-.308,2.175,2.175,0,0,1-.827-.582,1.282,1.282,0,0,1,0-1.711,2.166,2.166,0,0,1,.827-.582,5.565,5.565,0,0,1,1-.308,4.617,4.617,0,0,1,.928-.1,4.461,4.461,0,0,1,1.846.375v-9.3a.887.887,0,0,1,.183-.543A.951.951,0,0,1,5.576,2.5l8-2.461A.849.849,0,0,1,13.846,0,.89.89,0,0,1,14.5.269.89.89,0,0,1,14.769.923Z" stroke="none"/>
    <path d="M 13.8456563949585 1.9073486328125e-06 C 13.74313640594482 1.9073486328125e-06 13.65336608886719 0.01289176940917969 13.57632637023926 0.03866195678710938 L 5.576326370239258 2.500001907348633 C 5.384036064147949 2.564291954040527 5.226996421813965 2.678071975708008 5.105216026306152 2.841331481933594 C 4.98344612121582 3.004591941833496 4.922555923461914 3.18563175201416 4.922555923461914 3.384441375732422 L 4.922555923461914 12.68266201019287 C 4.364926338195801 12.43258190155029 3.749516487121582 12.30755233764648 3.076326370239258 12.30755233764648 C 2.787446022033691 12.30755233764648 2.478106498718262 12.34147167205811 2.148336410522461 12.40932178497314 C 1.81855583190918 12.47718238830566 1.486845970153809 12.57969188690186 1.153216361999512 12.71688175201416 C 0.8195962905883789 12.8540620803833 0.5438861846923828 13.04799175262451 0.326106071472168 13.29866218566895 C 0.1083364486694336 13.5493221282959 -0.0007038116455078125 13.83451175689697 -0.001004219055175781 14.15421199798584 C -0.001294136047363281 14.47391223907471 0.1077365875244141 14.75910186767578 0.326106071472168 15.0097713470459 C 0.5444765090942383 15.26043224334717 0.820185661315918 15.45436191558838 1.153216361999512 15.59154224395752 C 1.48625659942627 15.72873210906982 1.81795597076416 15.8312520980835 2.148336410522461 15.89910221099854 C 2.478706359863281 15.96695232391357 2.787961959838867 16.00058174133301 3.076326370239258 15.99999141693115 C 3.364625930786133 15.99940204620361 3.673815727233887 15.96562194824219 4.003886222839355 15.89866161346436 C 4.333955764770508 15.83170223236084 4.665666580200195 15.72918224334717 4.998995780944824 15.59110164642334 C 5.33232593536377 15.45303153991699 5.608036041259766 15.25910186767578 5.826106071472168 15.00932216644287 C 6.04417610168457 14.75955200195313 6.153216361999512 14.47436141967773 6.153216361999512 14.15377235412598 L 6.153216361999512 7.336441993713379 L 13.5376558303833 5.057771682739258 L 13.5376558303833 10.22177124023438 C 12.97896099090576 9.971223831176758 12.36248111724854 9.846657752990723 11.68760776519775 9.846659660339355 C 11.40011978149414 9.846662521362305 11.09204578399658 9.880292892456055 10.76343631744385 9.947551727294922 C 10.4333667755127 10.01511192321777 10.10165596008301 10.11762237548828 9.768325805664063 10.25510215759277 C 9.434995651245117 10.39258193969727 9.159296035766602 10.58651161193848 8.941215515136719 10.83688163757324 C 8.723146438598633 11.08725166320801 8.614106178283691 11.3724422454834 8.614106178283691 11.69244194030762 C 8.614106178283691 12.01244163513184 8.723146438598633 12.29762172698975 8.941215515136719 12.54799175262451 C 9.159296035766602 12.79836177825928 9.434995651245117 12.9922924041748 9.768325805664063 13.1297721862793 C 10.10165596008301 13.26725196838379 10.4333667755127 13.36977195739746 10.76343631744385 13.43732166290283 C 11.09351634979248 13.50488185882568 11.40290069580078 13.53851127624512 11.69143581390381 13.53821182250977 C 11.98002624511719 13.53792190551758 12.28936576843262 13.50429153442383 12.61943626403809 13.43732166290283 C 12.94950580596924 13.370361328125 13.28121566772461 13.26784133911133 13.61454582214355 13.1297721862793 C 13.9478759765625 12.99169158935547 14.2235860824585 12.79777145385742 14.4416561126709 12.54799175262451 C 14.65973567962646 12.2982120513916 14.76876640319824 12.01303195953369 14.76876640319824 11.69244194030762 L 14.76876640319824 0.9231119155883789 C 14.76876640319824 0.6668119430541992 14.67898654937744 0.4488916397094727 14.499436378479 0.2693319320678711 C 14.31987571716309 0.08978176116943359 14.10195636749268 1.9073486328125e-06 13.8456563949585 1.9073486328125e-06 M 13.8456563949585 -1.499998092651367 C 14.50360584259033 -1.499998092651367 15.09644603729248 -1.254959106445313 15.56006622314453 -0.7913589477539063 C 16.02372550964355 -0.3276786804199219 16.26876640319824 0.2651615142822266 16.26876640319824 0.9231119155883789 L 16.26876640319824 11.69244194030762 C 16.26876640319824 12.37515163421631 16.02768707275391 13.012131690979 15.57158660888672 13.53452205657959 C 15.20118618011475 13.95879173278809 14.73587608337402 14.28887176513672 14.18860626220703 14.51557159423828 C 13.76798629760742 14.6898021697998 13.34038639068604 14.82162189483643 12.91765594482422 14.90738201141357 C 12.49170589447021 14.99380207061768 12.07964611053467 15.03782176971436 11.692946434021 15.03821182250977 L 11.68760585784912 15.03821182250977 C 11.30065631866455 15.03821182250977 10.88852596282959 14.99402141571045 10.46266555786133 14.90686225891113 C 10.04158592224121 14.82068157196045 9.615535736083984 14.68933200836182 9.196395874023438 14.5164623260498 C 8.647716522216797 14.29016208648682 8.181306838989258 13.95934200286865 7.810126304626465 13.53320217132568 C 7.754624843597412 13.46948051452637 7.702291488647461 13.40403938293457 7.653216361999512 13.33706283569336 L 7.653216361999512 14.15377235412598 C 7.653216361999512 14.83647155761719 7.412136077880859 15.47346210479736 6.956046104431152 15.99585151672363 C 6.585616111755371 16.42015266418457 6.120285987854004 16.7502326965332 5.573025703430176 16.97692108154297 C 5.15247631072998 17.15113258361816 4.724865913391113 17.28295135498047 4.302105903625488 17.36872100830078 C 3.876626014709473 17.45503234863281 3.465246200561523 17.49920272827148 3.07939624786377 17.49999237060547 L 3.068865776062012 17.50000190734863 C 2.682876586914063 17.50000190734863 2.271626472473145 17.45573234558105 1.846555709838867 17.36843109130859 C 1.425736427307129 17.28201103210449 1.000236511230469 17.15081214904785 0.5818958282470703 16.97848129272461 C 0.03330612182617188 16.75250244140625 -0.433283805847168 16.4216423034668 -0.8048934936523438 15.99508190155029 C -1.26091480255127 15.47160148620605 -1.50162410736084 14.83458137512207 -1.501004219055176 14.15285205841064 C -1.500363349914551 13.47286224365234 -1.260123252868652 12.83733177185059 -0.8062334060668945 12.31489181518555 C -0.4347734451293945 11.88733196258545 0.03255653381347656 11.55582237243652 0.5827760696411133 11.32958221435547 C 1.001186370849609 11.15753173828125 1.426206588745117 11.02649116516113 1.846006393432617 10.94010162353516 C 2.273506164550781 10.85214233398438 2.687436103820801 10.80755233764648 3.076326370239258 10.80755233764648 C 3.192741394042969 10.80755233764648 3.308117866516113 10.81050968170166 3.422555923461914 10.81642150878906 L 3.422555923461914 3.384441375732422 C 3.422555923461914 2.863692283630371 3.58863639831543 2.365772247314453 3.902835845947266 1.944511413574219 C 4.206206321716309 1.537812232971191 4.620406150817871 1.237981796264648 5.100696563720703 1.077402114868164 L 5.135226249694824 1.06632137298584 L 13.12299537658691 -1.391254425048828 C 13.34716510772705 -1.463424682617188 13.59015083312988 -1.499998092651367 13.8456563949585 -1.499998092651367 Z M 12.0376558303833 8.355661392211914 L 12.0376558303833 7.090428352355957 L 7.653216361999512 8.443367004394531 L 7.653216361999512 10.04780578613281 C 7.702289581298828 9.980831146240234 7.754607200622559 9.915410995483398 7.81010627746582 9.851692199707031 C 8.181306838989258 9.425531387329102 8.647716522216797 9.094711303710938 9.196395874023438 8.868412017822266 C 9.615476608276367 8.695571899414063 10.04150581359863 8.56422233581543 10.462646484375 8.478021621704102 C 10.88849639892578 8.390851974487305 11.30062580108643 8.346662521362305 11.68760585784912 8.346662521362305 C 11.80533313751221 8.346662521362305 11.92205905914307 8.349666595458984 12.0376558303833 8.355661392211914 Z" stroke="none" fill="currentColor"/>
  </g>
</svg>
