<svg xmlns="http://www.w3.org/2000/svg" width="18" height="12.667" viewBox="0 0 18 12.667">
  <g id="Icon_awesome-ticket-alt" data-name="Icon awesome-ticket-alt" transform="translate(1 -3.5)" fill="none">
    <path d="M3.556,7.167h8.889V12.5H3.556ZM14.667,9.833A1.333,1.333,0,0,0,16,11.167v2.667a1.333,1.333,0,0,1-1.333,1.333H1.333A1.333,1.333,0,0,1,0,13.833V11.167A1.333,1.333,0,0,0,1.333,9.833,1.333,1.333,0,0,0,0,8.5V5.833A1.333,1.333,0,0,1,1.333,4.5H14.667A1.333,1.333,0,0,1,16,5.833V8.5A1.333,1.333,0,0,0,14.667,9.833ZM13.333,6.944a.667.667,0,0,0-.667-.667H3.333a.667.667,0,0,0-.667.667v5.778a.667.667,0,0,0,.667.667h9.333a.667.667,0,0,0,.667-.667Z" stroke="none"/>
    <path d="M 1.333330154418945 4.500003814697266 C 0.5969400405883789 4.500003814697266 0 5.096943855285645 0 5.833333969116211 L 0 8.500003814697266 C 0.7363901138305664 8.500003814697266 1.333330154418945 9.096943855285645 1.333330154418945 9.833333969116211 C 1.333330154418945 10.56972408294678 0.7363901138305664 11.16666412353516 0 11.16666412353516 L 0 13.83333396911621 C 0 14.56972408294678 0.5969400405883789 15.16666412353516 1.333330154418945 15.16666412353516 L 14.66666984558105 15.16666412353516 C 15.40305042266846 15.16666412353516 16 14.56972408294678 16 13.83333396911621 L 16 11.16666412353516 C 15.26360988616943 11.16666412353516 14.66666984558105 10.56972408294678 14.66666984558105 9.833333969116211 C 14.66666984558105 9.096943855285645 15.26360988616943 8.500003814697266 16 8.500003814697266 L 16 5.833333969116211 C 16 5.096943855285645 15.40305042266846 4.500003814697266 14.66666984558105 4.500003814697266 L 1.333330154418945 4.500003814697266 M 12.66666984558105 13.38889408111572 L 3.333330154418945 13.38889408111572 C 2.965140342712402 13.38889408111572 2.666669845581055 13.09041404724121 2.666669845581055 12.72222328186035 L 2.666669845581055 6.944443702697754 C 2.666669845581055 6.576253890991211 2.965140342712402 6.277773857116699 3.333330154418945 6.277773857116699 L 12.66666984558105 6.277773857116699 C 13.0348596572876 6.277773857116699 13.33333015441895 6.576253890991211 13.33333015441895 6.944443702697754 L 13.33333015441895 12.72222328186035 C 13.33333015441895 13.09041404724121 13.0348596572876 13.38889408111572 12.66666984558105 13.38889408111572 M 3.555560111999512 7.166664123535156 L 3.555560111999512 12.50000381469727 L 12.44443988800049 12.50000381469727 L 12.44443988800049 7.166664123535156 L 3.555560111999512 7.166664123535156 M 1.333330154418945 3.500003814697266 L 14.66666984558105 3.500003814697266 C 15.95326995849609 3.500003814697266 17 4.546733856201172 17 5.833333969116211 L 17 9.500003814697266 L 16 9.500003814697266 C 15.81620025634766 9.500003814697266 15.66666984558105 9.649534225463867 15.66666984558105 9.833333969116211 C 15.66666984558105 10.01713371276855 15.81620025634766 10.16666412353516 16 10.16666412353516 L 17 10.16666412353516 L 17 13.83333396911621 C 17 15.11993408203125 15.95326995849609 16.16666412353516 14.66666984558105 16.16666412353516 L 1.333330154418945 16.16666412353516 C 0.04673004150390625 16.16666412353516 -1 15.11993408203125 -1 13.83333396911621 L -1 10.16666412353516 L 0 10.16666412353516 C 0.1837997436523438 10.16666412353516 0.3333301544189453 10.01713371276855 0.3333301544189453 9.833333969116211 C 0.3333301544189453 9.649534225463867 0.1837997436523438 9.500003814697266 0 9.500003814697266 L -1 9.500003814697266 L -1 5.833333969116211 C -1 4.546733856201172 0.04673004150390625 3.500003814697266 1.333330154418945 3.500003814697266 Z" stroke="none" fill="currentColor"/>
  </g>
</svg>
