<svg xmlns="http://www.w3.org/2000/svg" width="24" height="24" viewBox="0 0 24 24">
  <g id="Group_1221" data-name="Group 1221" transform="translate(-1406 -12)">
    <rect id="Rectangle_1888" data-name="Rectangle 1888" width="24" height="24" transform="translate(1406 12)" fill="none"/>
    <g id="Icon_feather-copy" data-name="Icon feather-copy" transform="translate(1407 13)">
      <path id="Path_1039" data-name="Path 1039" d="M15.1,13.5h7.2a1.6,1.6,0,0,1,1.6,1.6v7.2a1.6,1.6,0,0,1-1.6,1.6H15.1a1.6,1.6,0,0,1-1.6-1.6V15.1A1.6,1.6,0,0,1,15.1,13.5Z" transform="translate(-4.9 -4.9)" fill="none" stroke="#30419b" stroke-linecap="round" stroke-linejoin="round" stroke-width="1.5"/>
      <path id="Path_1040" data-name="Path 1040" d="M5.4,13.4H4.6A1.6,1.6,0,0,1,3,11.8V4.6A1.6,1.6,0,0,1,4.6,3h7.2a1.6,1.6,0,0,1,1.6,1.6v.8" fill="none" stroke="#30419b" stroke-linecap="round" stroke-linejoin="round" stroke-width="1.5"/>
    </g>
  </g>
</svg>
